<mxfile host="65bd71144e">
    <diagram id="8yluXd0_CThpGidCqGMl" name="ページ1">
        <mxGraphModel dx="1485" dy="1531" grid="1" gridSize="10" guides="1" tooltips="1" connect="1" arrows="1" fold="1" page="1" pageScale="1" pageWidth="1169" pageHeight="827" background="#FFFFFF" math="0" shadow="0">
            <root>
                <mxCell id="0"/>
                <mxCell id="1" parent="0"/>
                <mxCell id="78" value="users" style="shape=table;startSize=30;container=1;collapsible=1;childLayout=tableLayout;fixedRows=1;rowLines=0;fontStyle=1;align=center;resizeLast=1;strokeColor=#000000;fontColor=#FFFFFF;" parent="1" vertex="1">
                    <mxGeometry x="40" y="40" width="240" height="390" as="geometry"/>
                </mxCell>
                <mxCell id="79" value="" style="shape=tableRow;horizontal=0;startSize=0;swimlaneHead=0;swimlaneBody=0;fillColor=none;collapsible=0;dropTarget=0;points=[[0,0.5],[1,0.5]];portConstraint=eastwest;top=0;left=0;right=0;bottom=1;strokeColor=#000000;fontColor=#000000;" parent="78" vertex="1">
                    <mxGeometry y="30" width="240" height="30" as="geometry"/>
                </mxCell>
                <mxCell id="80" value="PK" style="shape=partialRectangle;connectable=0;fillColor=none;top=0;left=0;bottom=0;right=0;fontStyle=1;overflow=hidden;strokeColor=#000000;fontColor=#000000;" parent="79" vertex="1">
                    <mxGeometry width="30" height="30" as="geometry">
                        <mxRectangle width="30" height="30" as="alternateBounds"/>
                    </mxGeometry>
                </mxCell>
                <mxCell id="81" value="id" style="shape=partialRectangle;connectable=0;fillColor=none;top=0;left=0;bottom=0;right=0;align=left;spacingLeft=6;fontStyle=5;overflow=hidden;strokeColor=#000000;fontColor=#000000;" parent="79" vertex="1">
                    <mxGeometry x="30" width="210" height="30" as="geometry">
                        <mxRectangle width="210" height="30" as="alternateBounds"/>
                    </mxGeometry>
                </mxCell>
                <mxCell id="82" value="" style="shape=tableRow;horizontal=0;startSize=0;swimlaneHead=0;swimlaneBody=0;fillColor=none;collapsible=0;dropTarget=0;points=[[0,0.5],[1,0.5]];portConstraint=eastwest;top=0;left=0;right=0;bottom=0;strokeColor=#000000;fontColor=#000000;" parent="78" vertex="1">
                    <mxGeometry y="60" width="240" height="30" as="geometry"/>
                </mxCell>
                <mxCell id="83" value="" style="shape=partialRectangle;connectable=0;fillColor=none;top=0;left=0;bottom=0;right=0;editable=1;overflow=hidden;strokeColor=#000000;fontColor=#000000;" parent="82" vertex="1">
                    <mxGeometry width="30" height="30" as="geometry">
                        <mxRectangle width="30" height="30" as="alternateBounds"/>
                    </mxGeometry>
                </mxCell>
                <mxCell id="84" value="name" style="shape=partialRectangle;connectable=0;fillColor=none;top=0;left=0;bottom=0;right=0;align=left;spacingLeft=6;overflow=hidden;strokeColor=#000000;fontColor=#000000;" parent="82" vertex="1">
                    <mxGeometry x="30" width="210" height="30" as="geometry">
                        <mxRectangle width="210" height="30" as="alternateBounds"/>
                    </mxGeometry>
                </mxCell>
                <mxCell id="112" value="" style="shape=tableRow;horizontal=0;startSize=0;swimlaneHead=0;swimlaneBody=0;fillColor=none;collapsible=0;dropTarget=0;points=[[0,0.5],[1,0.5]];portConstraint=eastwest;top=0;left=0;right=0;bottom=0;strokeColor=#000000;fontColor=#000000;" parent="78" vertex="1">
                    <mxGeometry y="90" width="240" height="30" as="geometry"/>
                </mxCell>
                <mxCell id="113" value="" style="shape=partialRectangle;connectable=0;fillColor=none;top=0;left=0;bottom=0;right=0;editable=1;overflow=hidden;strokeColor=#000000;fontColor=#000000;" parent="112" vertex="1">
                    <mxGeometry width="30" height="30" as="geometry">
                        <mxRectangle width="30" height="30" as="alternateBounds"/>
                    </mxGeometry>
                </mxCell>
                <mxCell id="114" value="reading_name (add)" style="shape=partialRectangle;connectable=0;fillColor=none;top=0;left=0;bottom=0;right=0;align=left;spacingLeft=6;overflow=hidden;strokeColor=#000000;fontColor=#000000;" parent="112" vertex="1">
                    <mxGeometry x="30" width="210" height="30" as="geometry">
                        <mxRectangle width="210" height="30" as="alternateBounds"/>
                    </mxGeometry>
                </mxCell>
                <mxCell id="91" value="" style="shape=tableRow;horizontal=0;startSize=0;swimlaneHead=0;swimlaneBody=0;fillColor=none;collapsible=0;dropTarget=0;points=[[0,0.5],[1,0.5]];portConstraint=eastwest;top=0;left=0;right=0;bottom=0;strokeColor=#000000;fontColor=#000000;" parent="78" vertex="1">
                    <mxGeometry y="120" width="240" height="30" as="geometry"/>
                </mxCell>
                <mxCell id="92" value="" style="shape=partialRectangle;connectable=0;fillColor=none;top=0;left=0;bottom=0;right=0;editable=1;overflow=hidden;strokeColor=#000000;fontColor=#000000;" parent="91" vertex="1">
                    <mxGeometry width="30" height="30" as="geometry">
                        <mxRectangle width="30" height="30" as="alternateBounds"/>
                    </mxGeometry>
                </mxCell>
                <mxCell id="93" value="email" style="shape=partialRectangle;connectable=0;fillColor=none;top=0;left=0;bottom=0;right=0;align=left;spacingLeft=6;overflow=hidden;strokeColor=#000000;fontColor=#000000;" parent="91" vertex="1">
                    <mxGeometry x="30" width="210" height="30" as="geometry">
                        <mxRectangle width="210" height="30" as="alternateBounds"/>
                    </mxGeometry>
                </mxCell>
                <mxCell id="94" value="" style="shape=tableRow;horizontal=0;startSize=0;swimlaneHead=0;swimlaneBody=0;fillColor=none;collapsible=0;dropTarget=0;points=[[0,0.5],[1,0.5]];portConstraint=eastwest;top=0;left=0;right=0;bottom=0;strokeColor=#000000;fontColor=#000000;" parent="78" vertex="1">
                    <mxGeometry y="150" width="240" height="30" as="geometry"/>
                </mxCell>
                <mxCell id="95" value="" style="shape=partialRectangle;connectable=0;fillColor=none;top=0;left=0;bottom=0;right=0;editable=1;overflow=hidden;strokeColor=#000000;fontColor=#000000;" parent="94" vertex="1">
                    <mxGeometry width="30" height="30" as="geometry">
                        <mxRectangle width="30" height="30" as="alternateBounds"/>
                    </mxGeometry>
                </mxCell>
                <mxCell id="96" value="email_verified_at" style="shape=partialRectangle;connectable=0;fillColor=none;top=0;left=0;bottom=0;right=0;align=left;spacingLeft=6;overflow=hidden;strokeColor=#000000;fontColor=#000000;" parent="94" vertex="1">
                    <mxGeometry x="30" width="210" height="30" as="geometry">
                        <mxRectangle width="210" height="30" as="alternateBounds"/>
                    </mxGeometry>
                </mxCell>
                <mxCell id="97" value="" style="shape=tableRow;horizontal=0;startSize=0;swimlaneHead=0;swimlaneBody=0;fillColor=none;collapsible=0;dropTarget=0;points=[[0,0.5],[1,0.5]];portConstraint=eastwest;top=0;left=0;right=0;bottom=0;strokeColor=#000000;fontColor=#000000;" parent="78" vertex="1">
                    <mxGeometry y="180" width="240" height="30" as="geometry"/>
                </mxCell>
                <mxCell id="98" value="" style="shape=partialRectangle;connectable=0;fillColor=none;top=0;left=0;bottom=0;right=0;editable=1;overflow=hidden;strokeColor=#000000;fontColor=#000000;" parent="97" vertex="1">
                    <mxGeometry width="30" height="30" as="geometry">
                        <mxRectangle width="30" height="30" as="alternateBounds"/>
                    </mxGeometry>
                </mxCell>
                <mxCell id="99" value="password" style="shape=partialRectangle;connectable=0;fillColor=none;top=0;left=0;bottom=0;right=0;align=left;spacingLeft=6;overflow=hidden;strokeColor=#000000;fontColor=#000000;" parent="97" vertex="1">
                    <mxGeometry x="30" width="210" height="30" as="geometry">
                        <mxRectangle width="210" height="30" as="alternateBounds"/>
                    </mxGeometry>
                </mxCell>
                <mxCell id="100" value="" style="shape=tableRow;horizontal=0;startSize=0;swimlaneHead=0;swimlaneBody=0;fillColor=none;collapsible=0;dropTarget=0;points=[[0,0.5],[1,0.5]];portConstraint=eastwest;top=0;left=0;right=0;bottom=0;strokeColor=#000000;fontColor=#000000;" parent="78" vertex="1">
                    <mxGeometry y="210" width="240" height="30" as="geometry"/>
                </mxCell>
                <mxCell id="101" value="" style="shape=partialRectangle;connectable=0;fillColor=none;top=0;left=0;bottom=0;right=0;editable=1;overflow=hidden;strokeColor=#000000;fontColor=#000000;" parent="100" vertex="1">
                    <mxGeometry width="30" height="30" as="geometry">
                        <mxRectangle width="30" height="30" as="alternateBounds"/>
                    </mxGeometry>
                </mxCell>
                <mxCell id="102" value="role_id" style="shape=partialRectangle;connectable=0;fillColor=none;top=0;left=0;bottom=0;right=0;align=left;spacingLeft=6;overflow=hidden;strokeColor=#000000;fontColor=#000000;" parent="100" vertex="1">
                    <mxGeometry x="30" width="210" height="30" as="geometry">
                        <mxRectangle width="210" height="30" as="alternateBounds"/>
                    </mxGeometry>
                </mxCell>
                <mxCell id="103" value="" style="shape=tableRow;horizontal=0;startSize=0;swimlaneHead=0;swimlaneBody=0;fillColor=none;collapsible=0;dropTarget=0;points=[[0,0.5],[1,0.5]];portConstraint=eastwest;top=0;left=0;right=0;bottom=0;strokeColor=#000000;fontColor=#000000;" parent="78" vertex="1">
                    <mxGeometry y="240" width="240" height="30" as="geometry"/>
                </mxCell>
                <mxCell id="104" value="" style="shape=partialRectangle;connectable=0;fillColor=none;top=0;left=0;bottom=0;right=0;editable=1;overflow=hidden;strokeColor=#000000;fontColor=#000000;" parent="103" vertex="1">
                    <mxGeometry width="30" height="30" as="geometry">
                        <mxRectangle width="30" height="30" as="alternateBounds"/>
                    </mxGeometry>
                </mxCell>
                <mxCell id="105" value="affiliation_name (add)" style="shape=partialRectangle;connectable=0;fillColor=none;top=0;left=0;bottom=0;right=0;align=left;spacingLeft=6;overflow=hidden;strokeColor=#000000;fontColor=#000000;" parent="103" vertex="1">
                    <mxGeometry x="30" width="210" height="30" as="geometry">
                        <mxRectangle width="210" height="30" as="alternateBounds"/>
                    </mxGeometry>
                </mxCell>
                <mxCell id="106" value="" style="shape=tableRow;horizontal=0;startSize=0;swimlaneHead=0;swimlaneBody=0;fillColor=none;collapsible=0;dropTarget=0;points=[[0,0.5],[1,0.5]];portConstraint=eastwest;top=0;left=0;right=0;bottom=0;strokeColor=#000000;fontColor=#000000;" parent="78" vertex="1">
                    <mxGeometry y="270" width="240" height="30" as="geometry"/>
                </mxCell>
                <mxCell id="107" value="" style="shape=partialRectangle;connectable=0;fillColor=none;top=0;left=0;bottom=0;right=0;editable=1;overflow=hidden;strokeColor=#000000;fontColor=#000000;" parent="106" vertex="1">
                    <mxGeometry width="30" height="30" as="geometry">
                        <mxRectangle width="30" height="30" as="alternateBounds"/>
                    </mxGeometry>
                </mxCell>
                <mxCell id="108" value="affiliation_reading_name (add)" style="shape=partialRectangle;connectable=0;fillColor=none;top=0;left=0;bottom=0;right=0;align=left;spacingLeft=6;overflow=hidden;strokeColor=#000000;fontColor=#000000;" parent="106" vertex="1">
                    <mxGeometry x="30" width="210" height="30" as="geometry">
                        <mxRectangle width="210" height="30" as="alternateBounds"/>
                    </mxGeometry>
                </mxCell>
                <mxCell id="109" value="" style="shape=tableRow;horizontal=0;startSize=0;swimlaneHead=0;swimlaneBody=0;fillColor=none;collapsible=0;dropTarget=0;points=[[0,0.5],[1,0.5]];portConstraint=eastwest;top=0;left=0;right=0;bottom=0;strokeColor=#000000;fontColor=#000000;" parent="78" vertex="1">
                    <mxGeometry y="300" width="240" height="30" as="geometry"/>
                </mxCell>
                <mxCell id="110" value="" style="shape=partialRectangle;connectable=0;fillColor=none;top=0;left=0;bottom=0;right=0;editable=1;overflow=hidden;strokeColor=#000000;fontColor=#000000;" parent="109" vertex="1">
                    <mxGeometry width="30" height="30" as="geometry">
                        <mxRectangle width="30" height="30" as="alternateBounds"/>
                    </mxGeometry>
                </mxCell>
                <mxCell id="111" value="remember_token" style="shape=partialRectangle;connectable=0;fillColor=none;top=0;left=0;bottom=0;right=0;align=left;spacingLeft=6;overflow=hidden;strokeColor=#000000;fontColor=#000000;" parent="109" vertex="1">
                    <mxGeometry x="30" width="210" height="30" as="geometry">
                        <mxRectangle width="210" height="30" as="alternateBounds"/>
                    </mxGeometry>
                </mxCell>
                <mxCell id="85" value="" style="shape=tableRow;horizontal=0;startSize=0;swimlaneHead=0;swimlaneBody=0;fillColor=none;collapsible=0;dropTarget=0;points=[[0,0.5],[1,0.5]];portConstraint=eastwest;top=0;left=0;right=0;bottom=0;strokeColor=#000000;fontColor=#000000;" parent="78" vertex="1">
                    <mxGeometry y="330" width="240" height="30" as="geometry"/>
                </mxCell>
                <mxCell id="86" value="" style="shape=partialRectangle;connectable=0;fillColor=none;top=0;left=0;bottom=0;right=0;editable=1;overflow=hidden;strokeColor=#000000;fontColor=#000000;" parent="85" vertex="1">
                    <mxGeometry width="30" height="30" as="geometry">
                        <mxRectangle width="30" height="30" as="alternateBounds"/>
                    </mxGeometry>
                </mxCell>
                <mxCell id="87" value="created_at" style="shape=partialRectangle;connectable=0;fillColor=none;top=0;left=0;bottom=0;right=0;align=left;spacingLeft=6;overflow=hidden;strokeColor=#000000;fontColor=#000000;" parent="85" vertex="1">
                    <mxGeometry x="30" width="210" height="30" as="geometry">
                        <mxRectangle width="210" height="30" as="alternateBounds"/>
                    </mxGeometry>
                </mxCell>
                <mxCell id="88" value="" style="shape=tableRow;horizontal=0;startSize=0;swimlaneHead=0;swimlaneBody=0;fillColor=none;collapsible=0;dropTarget=0;points=[[0,0.5],[1,0.5]];portConstraint=eastwest;top=0;left=0;right=0;bottom=0;strokeColor=#000000;fontColor=#000000;" parent="78" vertex="1">
                    <mxGeometry y="360" width="240" height="30" as="geometry"/>
                </mxCell>
                <mxCell id="89" value="" style="shape=partialRectangle;connectable=0;fillColor=none;top=0;left=0;bottom=0;right=0;editable=1;overflow=hidden;strokeColor=#000000;fontColor=#000000;" parent="88" vertex="1">
                    <mxGeometry width="30" height="30" as="geometry">
                        <mxRectangle width="30" height="30" as="alternateBounds"/>
                    </mxGeometry>
                </mxCell>
                <mxCell id="90" value="updated_at" style="shape=partialRectangle;connectable=0;fillColor=none;top=0;left=0;bottom=0;right=0;align=left;spacingLeft=6;overflow=hidden;strokeColor=#000000;fontColor=#000000;" parent="88" vertex="1">
                    <mxGeometry x="30" width="210" height="30" as="geometry">
                        <mxRectangle width="210" height="30" as="alternateBounds"/>
                    </mxGeometry>
                </mxCell>
                <mxCell id="393" value="book_user（中間テーブル）" style="shape=table;startSize=30;container=1;collapsible=1;childLayout=tableLayout;fixedRows=1;rowLines=0;fontStyle=1;align=center;resizeLast=1;strokeColor=#000000;fontColor=#ffffff;" parent="1" vertex="1">
                    <mxGeometry x="440" y="40" width="240" height="180" as="geometry"/>
                </mxCell>
                <mxCell id="394" value="" style="shape=tableRow;horizontal=0;startSize=0;swimlaneHead=0;swimlaneBody=0;fillColor=none;collapsible=0;dropTarget=0;points=[[0,0.5],[1,0.5]];portConstraint=eastwest;top=0;left=0;right=0;bottom=1;strokeColor=#000000;fontColor=#000000;" parent="393" vertex="1">
                    <mxGeometry y="30" width="240" height="30" as="geometry"/>
                </mxCell>
                <mxCell id="395" value="PK" style="shape=partialRectangle;connectable=0;fillColor=none;top=0;left=0;bottom=0;right=0;fontStyle=1;overflow=hidden;strokeColor=#000000;fontColor=#000000;" parent="394" vertex="1">
                    <mxGeometry width="30" height="30" as="geometry">
                        <mxRectangle width="30" height="30" as="alternateBounds"/>
                    </mxGeometry>
                </mxCell>
                <mxCell id="396" value="id" style="shape=partialRectangle;connectable=0;fillColor=none;top=0;left=0;bottom=0;right=0;align=left;spacingLeft=6;fontStyle=5;overflow=hidden;strokeColor=#000000;fontColor=#000000;" parent="394" vertex="1">
                    <mxGeometry x="30" width="210" height="30" as="geometry">
                        <mxRectangle width="210" height="30" as="alternateBounds"/>
                    </mxGeometry>
                </mxCell>
                <mxCell id="397" value="" style="shape=tableRow;horizontal=0;startSize=0;swimlaneHead=0;swimlaneBody=0;fillColor=none;collapsible=0;dropTarget=0;points=[[0,0.5],[1,0.5]];portConstraint=eastwest;top=0;left=0;right=0;bottom=0;strokeColor=#000000;fontColor=#000000;" parent="393" vertex="1">
                    <mxGeometry y="60" width="240" height="30" as="geometry"/>
                </mxCell>
                <mxCell id="398" value="" style="shape=partialRectangle;connectable=0;fillColor=none;top=0;left=0;bottom=0;right=0;editable=1;overflow=hidden;strokeColor=#000000;fontColor=#000000;" parent="397" vertex="1">
                    <mxGeometry width="30" height="30" as="geometry">
                        <mxRectangle width="30" height="30" as="alternateBounds"/>
                    </mxGeometry>
                </mxCell>
                <mxCell id="399" value="user_id" style="shape=partialRectangle;connectable=0;fillColor=none;top=0;left=0;bottom=0;right=0;align=left;spacingLeft=6;overflow=hidden;strokeColor=#000000;fontColor=#000000;" parent="397" vertex="1">
                    <mxGeometry x="30" width="210" height="30" as="geometry">
                        <mxRectangle width="210" height="30" as="alternateBounds"/>
                    </mxGeometry>
                </mxCell>
                <mxCell id="471" value="" style="shape=tableRow;horizontal=0;startSize=0;swimlaneHead=0;swimlaneBody=0;fillColor=none;collapsible=0;dropTarget=0;points=[[0,0.5],[1,0.5]];portConstraint=eastwest;top=0;left=0;right=0;bottom=0;strokeColor=#000000;fontColor=#000000;" parent="393" vertex="1">
                    <mxGeometry y="90" width="240" height="30" as="geometry"/>
                </mxCell>
                <mxCell id="472" value="" style="shape=partialRectangle;connectable=0;fillColor=none;top=0;left=0;bottom=0;right=0;editable=1;overflow=hidden;strokeColor=#000000;fontColor=#000000;" parent="471" vertex="1">
                    <mxGeometry width="30" height="30" as="geometry">
                        <mxRectangle width="30" height="30" as="alternateBounds"/>
                    </mxGeometry>
                </mxCell>
                <mxCell id="473" value="book_id" style="shape=partialRectangle;connectable=0;fillColor=none;top=0;left=0;bottom=0;right=0;align=left;spacingLeft=6;overflow=hidden;strokeColor=#000000;fontColor=#000000;" parent="471" vertex="1">
                    <mxGeometry x="30" width="210" height="30" as="geometry">
                        <mxRectangle width="210" height="30" as="alternateBounds"/>
                    </mxGeometry>
                </mxCell>
                <mxCell id="424" value="" style="shape=tableRow;horizontal=0;startSize=0;swimlaneHead=0;swimlaneBody=0;fillColor=none;collapsible=0;dropTarget=0;points=[[0,0.5],[1,0.5]];portConstraint=eastwest;top=0;left=0;right=0;bottom=0;strokeColor=#000000;fontColor=#000000;" parent="393" vertex="1">
                    <mxGeometry y="120" width="240" height="30" as="geometry"/>
                </mxCell>
                <mxCell id="425" value="" style="shape=partialRectangle;connectable=0;fillColor=none;top=0;left=0;bottom=0;right=0;editable=1;overflow=hidden;strokeColor=#000000;fontColor=#000000;" parent="424" vertex="1">
                    <mxGeometry width="30" height="30" as="geometry">
                        <mxRectangle width="30" height="30" as="alternateBounds"/>
                    </mxGeometry>
                </mxCell>
                <mxCell id="426" value="created_at" style="shape=partialRectangle;connectable=0;fillColor=none;top=0;left=0;bottom=0;right=0;align=left;spacingLeft=6;overflow=hidden;strokeColor=#000000;fontColor=#000000;" parent="424" vertex="1">
                    <mxGeometry x="30" width="210" height="30" as="geometry">
                        <mxRectangle width="210" height="30" as="alternateBounds"/>
                    </mxGeometry>
                </mxCell>
                <mxCell id="427" value="" style="shape=tableRow;horizontal=0;startSize=0;swimlaneHead=0;swimlaneBody=0;fillColor=none;collapsible=0;dropTarget=0;points=[[0,0.5],[1,0.5]];portConstraint=eastwest;top=0;left=0;right=0;bottom=0;strokeColor=#000000;fontColor=#000000;" parent="393" vertex="1">
                    <mxGeometry y="150" width="240" height="30" as="geometry"/>
                </mxCell>
                <mxCell id="428" value="" style="shape=partialRectangle;connectable=0;fillColor=none;top=0;left=0;bottom=0;right=0;editable=1;overflow=hidden;strokeColor=#000000;fontColor=#000000;" parent="427" vertex="1">
                    <mxGeometry width="30" height="30" as="geometry">
                        <mxRectangle width="30" height="30" as="alternateBounds"/>
                    </mxGeometry>
                </mxCell>
                <mxCell id="429" value="updated_at" style="shape=partialRectangle;connectable=0;fillColor=none;top=0;left=0;bottom=0;right=0;align=left;spacingLeft=6;overflow=hidden;strokeColor=#000000;fontColor=#000000;" parent="427" vertex="1">
                    <mxGeometry x="30" width="210" height="30" as="geometry">
                        <mxRectangle width="210" height="30" as="alternateBounds"/>
                    </mxGeometry>
                </mxCell>
                <mxCell id="430" value="article_user（中間テーブル）" style="shape=table;startSize=30;container=1;collapsible=1;childLayout=tableLayout;fixedRows=1;rowLines=0;fontStyle=1;align=center;resizeLast=1;strokeColor=#000000;fontColor=#FFFFFF;" parent="1" vertex="1">
                    <mxGeometry x="440" y="360" width="240" height="180" as="geometry"/>
                </mxCell>
                <mxCell id="431" value="" style="shape=tableRow;horizontal=0;startSize=0;swimlaneHead=0;swimlaneBody=0;fillColor=none;collapsible=0;dropTarget=0;points=[[0,0.5],[1,0.5]];portConstraint=eastwest;top=0;left=0;right=0;bottom=1;strokeColor=#000000;fontColor=#000000;" parent="430" vertex="1">
                    <mxGeometry y="30" width="240" height="30" as="geometry"/>
                </mxCell>
                <mxCell id="432" value="PK" style="shape=partialRectangle;connectable=0;fillColor=none;top=0;left=0;bottom=0;right=0;fontStyle=1;overflow=hidden;strokeColor=#000000;fontColor=#000000;" parent="431" vertex="1">
                    <mxGeometry width="30" height="30" as="geometry">
                        <mxRectangle width="30" height="30" as="alternateBounds"/>
                    </mxGeometry>
                </mxCell>
                <mxCell id="433" value="id" style="shape=partialRectangle;connectable=0;fillColor=none;top=0;left=0;bottom=0;right=0;align=left;spacingLeft=6;fontStyle=5;overflow=hidden;strokeColor=#000000;fontColor=#000000;" parent="431" vertex="1">
                    <mxGeometry x="30" width="210" height="30" as="geometry">
                        <mxRectangle width="210" height="30" as="alternateBounds"/>
                    </mxGeometry>
                </mxCell>
                <mxCell id="434" value="" style="shape=tableRow;horizontal=0;startSize=0;swimlaneHead=0;swimlaneBody=0;fillColor=none;collapsible=0;dropTarget=0;points=[[0,0.5],[1,0.5]];portConstraint=eastwest;top=0;left=0;right=0;bottom=0;strokeColor=#000000;fontColor=#000000;" parent="430" vertex="1">
                    <mxGeometry y="60" width="240" height="30" as="geometry"/>
                </mxCell>
                <mxCell id="435" value="" style="shape=partialRectangle;connectable=0;fillColor=none;top=0;left=0;bottom=0;right=0;editable=1;overflow=hidden;strokeColor=#000000;fontColor=#000000;" parent="434" vertex="1">
                    <mxGeometry width="30" height="30" as="geometry">
                        <mxRectangle width="30" height="30" as="alternateBounds"/>
                    </mxGeometry>
                </mxCell>
                <mxCell id="436" value="user_id" style="shape=partialRectangle;connectable=0;fillColor=none;top=0;left=0;bottom=0;right=0;align=left;spacingLeft=6;overflow=hidden;strokeColor=#000000;fontColor=#000000;" parent="434" vertex="1">
                    <mxGeometry x="30" width="210" height="30" as="geometry">
                        <mxRectangle width="210" height="30" as="alternateBounds"/>
                    </mxGeometry>
                </mxCell>
                <mxCell id="437" value="" style="shape=tableRow;horizontal=0;startSize=0;swimlaneHead=0;swimlaneBody=0;fillColor=none;collapsible=0;dropTarget=0;points=[[0,0.5],[1,0.5]];portConstraint=eastwest;top=0;left=0;right=0;bottom=0;strokeColor=#000000;fontColor=#000000;" parent="430" vertex="1">
                    <mxGeometry y="90" width="240" height="30" as="geometry"/>
                </mxCell>
                <mxCell id="438" value="" style="shape=partialRectangle;connectable=0;fillColor=none;top=0;left=0;bottom=0;right=0;editable=1;overflow=hidden;strokeColor=#000000;fontColor=#000000;" parent="437" vertex="1">
                    <mxGeometry width="30" height="30" as="geometry">
                        <mxRectangle width="30" height="30" as="alternateBounds"/>
                    </mxGeometry>
                </mxCell>
                <mxCell id="439" value="article_id" style="shape=partialRectangle;connectable=0;fillColor=none;top=0;left=0;bottom=0;right=0;align=left;spacingLeft=6;overflow=hidden;strokeColor=#000000;fontColor=#000000;" parent="437" vertex="1">
                    <mxGeometry x="30" width="210" height="30" as="geometry">
                        <mxRectangle width="210" height="30" as="alternateBounds"/>
                    </mxGeometry>
                </mxCell>
                <mxCell id="440" value="" style="shape=tableRow;horizontal=0;startSize=0;swimlaneHead=0;swimlaneBody=0;fillColor=none;collapsible=0;dropTarget=0;points=[[0,0.5],[1,0.5]];portConstraint=eastwest;top=0;left=0;right=0;bottom=0;strokeColor=#000000;fontColor=#000000;" parent="430" vertex="1">
                    <mxGeometry y="120" width="240" height="30" as="geometry"/>
                </mxCell>
                <mxCell id="441" value="" style="shape=partialRectangle;connectable=0;fillColor=none;top=0;left=0;bottom=0;right=0;editable=1;overflow=hidden;strokeColor=#000000;fontColor=#000000;" parent="440" vertex="1">
                    <mxGeometry width="30" height="30" as="geometry">
                        <mxRectangle width="30" height="30" as="alternateBounds"/>
                    </mxGeometry>
                </mxCell>
                <mxCell id="442" value="created_at" style="shape=partialRectangle;connectable=0;fillColor=none;top=0;left=0;bottom=0;right=0;align=left;spacingLeft=6;overflow=hidden;strokeColor=#000000;fontColor=#000000;" parent="440" vertex="1">
                    <mxGeometry x="30" width="210" height="30" as="geometry">
                        <mxRectangle width="210" height="30" as="alternateBounds"/>
                    </mxGeometry>
                </mxCell>
                <mxCell id="443" value="" style="shape=tableRow;horizontal=0;startSize=0;swimlaneHead=0;swimlaneBody=0;fillColor=none;collapsible=0;dropTarget=0;points=[[0,0.5],[1,0.5]];portConstraint=eastwest;top=0;left=0;right=0;bottom=0;strokeColor=#000000;fontColor=#000000;" parent="430" vertex="1">
                    <mxGeometry y="150" width="240" height="30" as="geometry"/>
                </mxCell>
                <mxCell id="444" value="" style="shape=partialRectangle;connectable=0;fillColor=none;top=0;left=0;bottom=0;right=0;editable=1;overflow=hidden;strokeColor=#000000;fontColor=#000000;" parent="443" vertex="1">
                    <mxGeometry width="30" height="30" as="geometry">
                        <mxRectangle width="30" height="30" as="alternateBounds"/>
                    </mxGeometry>
                </mxCell>
                <mxCell id="445" value="updated_at" style="shape=partialRectangle;connectable=0;fillColor=none;top=0;left=0;bottom=0;right=0;align=left;spacingLeft=6;overflow=hidden;strokeColor=#000000;fontColor=#000000;" parent="443" vertex="1">
                    <mxGeometry x="30" width="210" height="30" as="geometry">
                        <mxRectangle width="210" height="30" as="alternateBounds"/>
                    </mxGeometry>
                </mxCell>
                <mxCell id="697" value="roles" style="shape=table;startSize=30;container=1;collapsible=1;childLayout=tableLayout;fixedRows=1;rowLines=0;fontStyle=1;align=center;resizeLast=1;strokeColor=#000000;fontColor=#FFFFFF;" vertex="1" parent="1">
                    <mxGeometry x="-280" y="220" width="240" height="180" as="geometry"/>
                </mxCell>
                <mxCell id="698" value="" style="shape=tableRow;horizontal=0;startSize=0;swimlaneHead=0;swimlaneBody=0;fillColor=none;collapsible=0;dropTarget=0;points=[[0,0.5],[1,0.5]];portConstraint=eastwest;top=0;left=0;right=0;bottom=1;strokeColor=#000000;fontColor=#000000;" vertex="1" parent="697">
                    <mxGeometry y="30" width="240" height="30" as="geometry"/>
                </mxCell>
                <mxCell id="699" value="PK" style="shape=partialRectangle;connectable=0;fillColor=none;top=0;left=0;bottom=0;right=0;fontStyle=1;overflow=hidden;strokeColor=#000000;fontColor=#000000;" vertex="1" parent="698">
                    <mxGeometry width="30" height="30" as="geometry">
                        <mxRectangle width="30" height="30" as="alternateBounds"/>
                    </mxGeometry>
                </mxCell>
                <mxCell id="700" value="id" style="shape=partialRectangle;connectable=0;fillColor=none;top=0;left=0;bottom=0;right=0;align=left;spacingLeft=6;fontStyle=5;overflow=hidden;strokeColor=#000000;fontColor=#000000;" vertex="1" parent="698">
                    <mxGeometry x="30" width="210" height="30" as="geometry">
                        <mxRectangle width="210" height="30" as="alternateBounds"/>
                    </mxGeometry>
                </mxCell>
                <mxCell id="701" value="" style="shape=tableRow;horizontal=0;startSize=0;swimlaneHead=0;swimlaneBody=0;fillColor=none;collapsible=0;dropTarget=0;points=[[0,0.5],[1,0.5]];portConstraint=eastwest;top=0;left=0;right=0;bottom=0;strokeColor=#000000;fontColor=#000000;" vertex="1" parent="697">
                    <mxGeometry y="60" width="240" height="30" as="geometry"/>
                </mxCell>
                <mxCell id="702" value="" style="shape=partialRectangle;connectable=0;fillColor=none;top=0;left=0;bottom=0;right=0;editable=1;overflow=hidden;strokeColor=#000000;fontColor=#000000;" vertex="1" parent="701">
                    <mxGeometry width="30" height="30" as="geometry">
                        <mxRectangle width="30" height="30" as="alternateBounds"/>
                    </mxGeometry>
                </mxCell>
                <mxCell id="703" value="name" style="shape=partialRectangle;connectable=0;fillColor=none;top=0;left=0;bottom=0;right=0;align=left;spacingLeft=6;overflow=hidden;strokeColor=#000000;fontColor=#000000;" vertex="1" parent="701">
                    <mxGeometry x="30" width="210" height="30" as="geometry">
                        <mxRectangle width="210" height="30" as="alternateBounds"/>
                    </mxGeometry>
                </mxCell>
                <mxCell id="704" value="" style="shape=tableRow;horizontal=0;startSize=0;swimlaneHead=0;swimlaneBody=0;fillColor=none;collapsible=0;dropTarget=0;points=[[0,0.5],[1,0.5]];portConstraint=eastwest;top=0;left=0;right=0;bottom=0;strokeColor=#000000;fontColor=#000000;" vertex="1" parent="697">
                    <mxGeometry y="90" width="240" height="30" as="geometry"/>
                </mxCell>
                <mxCell id="705" value="" style="shape=partialRectangle;connectable=0;fillColor=none;top=0;left=0;bottom=0;right=0;editable=1;overflow=hidden;strokeColor=#000000;fontColor=#000000;" vertex="1" parent="704">
                    <mxGeometry width="30" height="30" as="geometry">
                        <mxRectangle width="30" height="30" as="alternateBounds"/>
                    </mxGeometry>
                </mxCell>
                <mxCell id="706" value="level" style="shape=partialRectangle;connectable=0;fillColor=none;top=0;left=0;bottom=0;right=0;align=left;spacingLeft=6;overflow=hidden;strokeColor=#000000;fontColor=#000000;" vertex="1" parent="704">
                    <mxGeometry x="30" width="210" height="30" as="geometry">
                        <mxRectangle width="210" height="30" as="alternateBounds"/>
                    </mxGeometry>
                </mxCell>
                <mxCell id="707" value="" style="shape=tableRow;horizontal=0;startSize=0;swimlaneHead=0;swimlaneBody=0;fillColor=none;collapsible=0;dropTarget=0;points=[[0,0.5],[1,0.5]];portConstraint=eastwest;top=0;left=0;right=0;bottom=0;strokeColor=#000000;fontColor=#000000;" vertex="1" parent="697">
                    <mxGeometry y="120" width="240" height="30" as="geometry"/>
                </mxCell>
                <mxCell id="708" value="" style="shape=partialRectangle;connectable=0;fillColor=none;top=0;left=0;bottom=0;right=0;editable=1;overflow=hidden;strokeColor=#000000;fontColor=#000000;" vertex="1" parent="707">
                    <mxGeometry width="30" height="30" as="geometry">
                        <mxRectangle width="30" height="30" as="alternateBounds"/>
                    </mxGeometry>
                </mxCell>
                <mxCell id="709" value="created_at" style="shape=partialRectangle;connectable=0;fillColor=none;top=0;left=0;bottom=0;right=0;align=left;spacingLeft=6;overflow=hidden;strokeColor=#000000;fontColor=#000000;" vertex="1" parent="707">
                    <mxGeometry x="30" width="210" height="30" as="geometry">
                        <mxRectangle width="210" height="30" as="alternateBounds"/>
                    </mxGeometry>
                </mxCell>
                <mxCell id="710" value="" style="shape=tableRow;horizontal=0;startSize=0;swimlaneHead=0;swimlaneBody=0;fillColor=none;collapsible=0;dropTarget=0;points=[[0,0.5],[1,0.5]];portConstraint=eastwest;top=0;left=0;right=0;bottom=0;strokeColor=#000000;fontColor=#000000;" vertex="1" parent="697">
                    <mxGeometry y="150" width="240" height="30" as="geometry"/>
                </mxCell>
                <mxCell id="711" value="" style="shape=partialRectangle;connectable=0;fillColor=none;top=0;left=0;bottom=0;right=0;editable=1;overflow=hidden;strokeColor=#000000;fontColor=#000000;" vertex="1" parent="710">
                    <mxGeometry width="30" height="30" as="geometry">
                        <mxRectangle width="30" height="30" as="alternateBounds"/>
                    </mxGeometry>
                </mxCell>
                <mxCell id="712" value="updated_at" style="shape=partialRectangle;connectable=0;fillColor=none;top=0;left=0;bottom=0;right=0;align=left;spacingLeft=6;overflow=hidden;strokeColor=#000000;fontColor=#000000;" vertex="1" parent="710">
                    <mxGeometry x="30" width="210" height="30" as="geometry">
                        <mxRectangle width="210" height="30" as="alternateBounds"/>
                    </mxGeometry>
                </mxCell>
                <mxCell id="152" value="books（書籍）" style="shape=table;startSize=30;container=1;collapsible=1;childLayout=tableLayout;fixedRows=1;rowLines=0;fontStyle=1;align=center;resizeLast=1;strokeColor=#000000;fontColor=#ffffff;" parent="1" vertex="1">
                    <mxGeometry x="840" y="40" width="240" height="210" as="geometry"/>
                </mxCell>
                <mxCell id="153" value="" style="shape=tableRow;horizontal=0;startSize=0;swimlaneHead=0;swimlaneBody=0;fillColor=none;collapsible=0;dropTarget=0;points=[[0,0.5],[1,0.5]];portConstraint=eastwest;top=0;left=0;right=0;bottom=1;strokeColor=#000000;fontColor=#000000;" parent="152" vertex="1">
                    <mxGeometry y="30" width="240" height="30" as="geometry"/>
                </mxCell>
                <mxCell id="154" value="PK" style="shape=partialRectangle;connectable=0;fillColor=none;top=0;left=0;bottom=0;right=0;fontStyle=1;overflow=hidden;strokeColor=#000000;fontColor=#000000;" parent="153" vertex="1">
                    <mxGeometry width="30" height="30" as="geometry">
                        <mxRectangle width="30" height="30" as="alternateBounds"/>
                    </mxGeometry>
                </mxCell>
                <mxCell id="155" value="id" style="shape=partialRectangle;connectable=0;fillColor=none;top=0;left=0;bottom=0;right=0;align=left;spacingLeft=6;fontStyle=5;overflow=hidden;strokeColor=#000000;fontColor=#000000;" parent="153" vertex="1">
                    <mxGeometry x="30" width="210" height="30" as="geometry">
                        <mxRectangle width="210" height="30" as="alternateBounds"/>
                    </mxGeometry>
                </mxCell>
                <mxCell id="156" value="" style="shape=tableRow;horizontal=0;startSize=0;swimlaneHead=0;swimlaneBody=0;fillColor=none;collapsible=0;dropTarget=0;points=[[0,0.5],[1,0.5]];portConstraint=eastwest;top=0;left=0;right=0;bottom=0;strokeColor=#000000;fontColor=#000000;" parent="152" vertex="1">
                    <mxGeometry y="60" width="240" height="30" as="geometry"/>
                </mxCell>
                <mxCell id="157" value="" style="shape=partialRectangle;connectable=0;fillColor=none;top=0;left=0;bottom=0;right=0;editable=1;overflow=hidden;strokeColor=#000000;fontColor=#000000;" parent="156" vertex="1">
                    <mxGeometry width="30" height="30" as="geometry">
                        <mxRectangle width="30" height="30" as="alternateBounds"/>
                    </mxGeometry>
                </mxCell>
                <mxCell id="158" value="title" style="shape=partialRectangle;connectable=0;fillColor=none;top=0;left=0;bottom=0;right=0;align=left;spacingLeft=6;overflow=hidden;strokeColor=#000000;fontColor=#000000;" parent="156" vertex="1">
                    <mxGeometry x="30" width="210" height="30" as="geometry">
                        <mxRectangle width="210" height="30" as="alternateBounds"/>
                    </mxGeometry>
                </mxCell>
                <mxCell id="159" value="" style="shape=tableRow;horizontal=0;startSize=0;swimlaneHead=0;swimlaneBody=0;fillColor=none;collapsible=0;dropTarget=0;points=[[0,0.5],[1,0.5]];portConstraint=eastwest;top=0;left=0;right=0;bottom=0;strokeColor=#000000;fontColor=#000000;" parent="152" vertex="1">
                    <mxGeometry y="90" width="240" height="30" as="geometry"/>
                </mxCell>
                <mxCell id="160" value="" style="shape=partialRectangle;connectable=0;fillColor=none;top=0;left=0;bottom=0;right=0;editable=1;overflow=hidden;strokeColor=#000000;fontColor=#000000;" parent="159" vertex="1">
                    <mxGeometry width="30" height="30" as="geometry">
                        <mxRectangle width="30" height="30" as="alternateBounds"/>
                    </mxGeometry>
                </mxCell>
                <mxCell id="161" value="sub_title" style="shape=partialRectangle;connectable=0;fillColor=none;top=0;left=0;bottom=0;right=0;align=left;spacingLeft=6;overflow=hidden;strokeColor=#000000;fontColor=#000000;" parent="159" vertex="1">
                    <mxGeometry x="30" width="210" height="30" as="geometry">
                        <mxRectangle width="210" height="30" as="alternateBounds"/>
                    </mxGeometry>
                </mxCell>
                <mxCell id="677" value="" style="shape=tableRow;horizontal=0;startSize=0;swimlaneHead=0;swimlaneBody=0;fillColor=none;collapsible=0;dropTarget=0;points=[[0,0.5],[1,0.5]];portConstraint=eastwest;top=0;left=0;right=0;bottom=0;strokeColor=#000000;fontColor=#000000;" vertex="1" parent="152">
                    <mxGeometry y="120" width="240" height="30" as="geometry"/>
                </mxCell>
                <mxCell id="678" value="" style="shape=partialRectangle;connectable=0;fillColor=none;top=0;left=0;bottom=0;right=0;editable=1;overflow=hidden;strokeColor=#000000;fontColor=#000000;" vertex="1" parent="677">
                    <mxGeometry width="30" height="30" as="geometry">
                        <mxRectangle width="30" height="30" as="alternateBounds"/>
                    </mxGeometry>
                </mxCell>
                <mxCell id="679" value="book_state_type_id" style="shape=partialRectangle;connectable=0;fillColor=none;top=0;left=0;bottom=0;right=0;align=left;spacingLeft=6;overflow=hidden;strokeColor=#000000;fontColor=#000000;" vertex="1" parent="677">
                    <mxGeometry x="30" width="210" height="30" as="geometry">
                        <mxRectangle width="210" height="30" as="alternateBounds"/>
                    </mxGeometry>
                </mxCell>
                <mxCell id="183" value="" style="shape=tableRow;horizontal=0;startSize=0;swimlaneHead=0;swimlaneBody=0;fillColor=none;collapsible=0;dropTarget=0;points=[[0,0.5],[1,0.5]];portConstraint=eastwest;top=0;left=0;right=0;bottom=0;strokeColor=#000000;fontColor=#000000;" parent="152" vertex="1">
                    <mxGeometry y="150" width="240" height="30" as="geometry"/>
                </mxCell>
                <mxCell id="184" value="" style="shape=partialRectangle;connectable=0;fillColor=none;top=0;left=0;bottom=0;right=0;editable=1;overflow=hidden;strokeColor=#000000;fontColor=#000000;" parent="183" vertex="1">
                    <mxGeometry width="30" height="30" as="geometry">
                        <mxRectangle width="30" height="30" as="alternateBounds"/>
                    </mxGeometry>
                </mxCell>
                <mxCell id="185" value="created_at" style="shape=partialRectangle;connectable=0;fillColor=none;top=0;left=0;bottom=0;right=0;align=left;spacingLeft=6;overflow=hidden;strokeColor=#000000;fontColor=#000000;" parent="183" vertex="1">
                    <mxGeometry x="30" width="210" height="30" as="geometry">
                        <mxRectangle width="210" height="30" as="alternateBounds"/>
                    </mxGeometry>
                </mxCell>
                <mxCell id="186" value="" style="shape=tableRow;horizontal=0;startSize=0;swimlaneHead=0;swimlaneBody=0;fillColor=none;collapsible=0;dropTarget=0;points=[[0,0.5],[1,0.5]];portConstraint=eastwest;top=0;left=0;right=0;bottom=0;strokeColor=#000000;fontColor=#000000;" parent="152" vertex="1">
                    <mxGeometry y="180" width="240" height="30" as="geometry"/>
                </mxCell>
                <mxCell id="187" value="" style="shape=partialRectangle;connectable=0;fillColor=none;top=0;left=0;bottom=0;right=0;editable=1;overflow=hidden;strokeColor=#000000;fontColor=#000000;" parent="186" vertex="1">
                    <mxGeometry width="30" height="30" as="geometry">
                        <mxRectangle width="30" height="30" as="alternateBounds"/>
                    </mxGeometry>
                </mxCell>
                <mxCell id="188" value="updated_at" style="shape=partialRectangle;connectable=0;fillColor=none;top=0;left=0;bottom=0;right=0;align=left;spacingLeft=6;overflow=hidden;strokeColor=#000000;fontColor=#000000;" parent="186" vertex="1">
                    <mxGeometry x="30" width="210" height="30" as="geometry">
                        <mxRectangle width="210" height="30" as="alternateBounds"/>
                    </mxGeometry>
                </mxCell>
                <mxCell id="189" value="articles（記事）" style="shape=table;startSize=30;container=1;collapsible=1;childLayout=tableLayout;fixedRows=1;rowLines=0;fontStyle=1;align=center;resizeLast=1;strokeColor=#000000;fontColor=#fcfcfc;" parent="1" vertex="1">
                    <mxGeometry x="840" y="420" width="240" height="300" as="geometry"/>
                </mxCell>
                <mxCell id="190" value="" style="shape=tableRow;horizontal=0;startSize=0;swimlaneHead=0;swimlaneBody=0;fillColor=none;collapsible=0;dropTarget=0;points=[[0,0.5],[1,0.5]];portConstraint=eastwest;top=0;left=0;right=0;bottom=1;strokeColor=#000000;fontColor=#000000;" parent="189" vertex="1">
                    <mxGeometry y="30" width="240" height="30" as="geometry"/>
                </mxCell>
                <mxCell id="191" value="PK" style="shape=partialRectangle;connectable=0;fillColor=none;top=0;left=0;bottom=0;right=0;fontStyle=1;overflow=hidden;strokeColor=#000000;fontColor=#000000;" parent="190" vertex="1">
                    <mxGeometry width="30" height="30" as="geometry">
                        <mxRectangle width="30" height="30" as="alternateBounds"/>
                    </mxGeometry>
                </mxCell>
                <mxCell id="192" value="id" style="shape=partialRectangle;connectable=0;fillColor=none;top=0;left=0;bottom=0;right=0;align=left;spacingLeft=6;fontStyle=5;overflow=hidden;strokeColor=#000000;fontColor=#000000;" parent="190" vertex="1">
                    <mxGeometry x="30" width="210" height="30" as="geometry">
                        <mxRectangle width="210" height="30" as="alternateBounds"/>
                    </mxGeometry>
                </mxCell>
                <mxCell id="364" value="" style="shape=tableRow;horizontal=0;startSize=0;swimlaneHead=0;swimlaneBody=0;fillColor=none;collapsible=0;dropTarget=0;points=[[0,0.5],[1,0.5]];portConstraint=eastwest;top=0;left=0;right=0;bottom=0;strokeColor=#000000;fontColor=#000000;" parent="189" vertex="1">
                    <mxGeometry y="60" width="240" height="30" as="geometry"/>
                </mxCell>
                <mxCell id="365" value="" style="shape=partialRectangle;connectable=0;fillColor=none;top=0;left=0;bottom=0;right=0;editable=1;overflow=hidden;strokeColor=#000000;fontColor=#000000;" parent="364" vertex="1">
                    <mxGeometry width="30" height="30" as="geometry">
                        <mxRectangle width="30" height="30" as="alternateBounds"/>
                    </mxGeometry>
                </mxCell>
                <mxCell id="366" value="book_id" style="shape=partialRectangle;connectable=0;fillColor=none;top=0;left=0;bottom=0;right=0;align=left;spacingLeft=6;overflow=hidden;strokeColor=#000000;fontColor=#000000;" parent="364" vertex="1">
                    <mxGeometry x="30" width="210" height="30" as="geometry">
                        <mxRectangle width="210" height="30" as="alternateBounds"/>
                    </mxGeometry>
                </mxCell>
                <mxCell id="552" value="" style="shape=tableRow;horizontal=0;startSize=0;swimlaneHead=0;swimlaneBody=0;fillColor=none;collapsible=0;dropTarget=0;points=[[0,0.5],[1,0.5]];portConstraint=eastwest;top=0;left=0;right=0;bottom=0;strokeColor=#000000;fontColor=#000000;" parent="189" vertex="1">
                    <mxGeometry y="90" width="240" height="30" as="geometry"/>
                </mxCell>
                <mxCell id="553" value="" style="shape=partialRectangle;connectable=0;fillColor=none;top=0;left=0;bottom=0;right=0;editable=1;overflow=hidden;strokeColor=#000000;fontColor=#000000;" parent="552" vertex="1">
                    <mxGeometry width="30" height="30" as="geometry">
                        <mxRectangle width="30" height="30" as="alternateBounds"/>
                    </mxGeometry>
                </mxCell>
                <mxCell id="554" value="article_type_id" style="shape=partialRectangle;connectable=0;fillColor=none;top=0;left=0;bottom=0;right=0;align=left;spacingLeft=6;overflow=hidden;strokeColor=#000000;fontColor=#000000;" parent="552" vertex="1">
                    <mxGeometry x="30" width="210" height="30" as="geometry">
                        <mxRectangle width="210" height="30" as="alternateBounds"/>
                    </mxGeometry>
                </mxCell>
                <mxCell id="713" value="" style="shape=tableRow;horizontal=0;startSize=0;swimlaneHead=0;swimlaneBody=0;fillColor=none;collapsible=0;dropTarget=0;points=[[0,0.5],[1,0.5]];portConstraint=eastwest;top=0;left=0;right=0;bottom=0;strokeColor=#000000;fontColor=#000000;" vertex="1" parent="189">
                    <mxGeometry y="120" width="240" height="30" as="geometry"/>
                </mxCell>
                <mxCell id="714" value="" style="shape=partialRectangle;connectable=0;fillColor=none;top=0;left=0;bottom=0;right=0;editable=1;overflow=hidden;strokeColor=#000000;fontColor=#000000;" vertex="1" parent="713">
                    <mxGeometry width="30" height="30" as="geometry">
                        <mxRectangle width="30" height="30" as="alternateBounds"/>
                    </mxGeometry>
                </mxCell>
                <mxCell id="715" value="article_number" style="shape=partialRectangle;connectable=0;fillColor=none;top=0;left=0;bottom=0;right=0;align=left;spacingLeft=6;overflow=hidden;strokeColor=#000000;fontColor=#000000;" vertex="1" parent="713">
                    <mxGeometry x="30" width="210" height="30" as="geometry">
                        <mxRectangle width="210" height="30" as="alternateBounds"/>
                    </mxGeometry>
                </mxCell>
                <mxCell id="199" value="" style="shape=tableRow;horizontal=0;startSize=0;swimlaneHead=0;swimlaneBody=0;fillColor=none;collapsible=0;dropTarget=0;points=[[0,0.5],[1,0.5]];portConstraint=eastwest;top=0;left=0;right=0;bottom=0;strokeColor=#000000;fontColor=#000000;" parent="189" vertex="1">
                    <mxGeometry y="150" width="240" height="30" as="geometry"/>
                </mxCell>
                <mxCell id="200" value="" style="shape=partialRectangle;connectable=0;fillColor=none;top=0;left=0;bottom=0;right=0;editable=1;overflow=hidden;strokeColor=#000000;fontColor=#000000;" parent="199" vertex="1">
                    <mxGeometry width="30" height="30" as="geometry">
                        <mxRectangle width="30" height="30" as="alternateBounds"/>
                    </mxGeometry>
                </mxCell>
                <mxCell id="201" value="label" style="shape=partialRectangle;connectable=0;fillColor=none;top=0;left=0;bottom=0;right=0;align=left;spacingLeft=6;overflow=hidden;strokeColor=#000000;fontColor=#000000;" parent="199" vertex="1">
                    <mxGeometry x="30" width="210" height="30" as="geometry">
                        <mxRectangle width="210" height="30" as="alternateBounds"/>
                    </mxGeometry>
                </mxCell>
                <mxCell id="386" value="" style="shape=tableRow;horizontal=0;startSize=0;swimlaneHead=0;swimlaneBody=0;fillColor=none;collapsible=0;dropTarget=0;points=[[0,0.5],[1,0.5]];portConstraint=eastwest;top=0;left=0;right=0;bottom=0;strokeColor=#000000;fontColor=#000000;" parent="189" vertex="1">
                    <mxGeometry y="180" width="240" height="30" as="geometry"/>
                </mxCell>
                <mxCell id="387" value="" style="shape=partialRectangle;connectable=0;fillColor=none;top=0;left=0;bottom=0;right=0;editable=1;overflow=hidden;strokeColor=#000000;fontColor=#000000;" parent="386" vertex="1">
                    <mxGeometry width="30" height="30" as="geometry">
                        <mxRectangle width="30" height="30" as="alternateBounds"/>
                    </mxGeometry>
                </mxCell>
                <mxCell id="388" value="article_data" style="shape=partialRectangle;connectable=0;fillColor=none;top=0;left=0;bottom=0;right=0;align=left;spacingLeft=6;overflow=hidden;strokeColor=#000000;fontColor=#000000;" parent="386" vertex="1">
                    <mxGeometry x="30" width="210" height="30" as="geometry">
                        <mxRectangle width="210" height="30" as="alternateBounds"/>
                    </mxGeometry>
                </mxCell>
                <mxCell id="687" value="" style="shape=tableRow;horizontal=0;startSize=0;swimlaneHead=0;swimlaneBody=0;fillColor=none;collapsible=0;dropTarget=0;points=[[0,0.5],[1,0.5]];portConstraint=eastwest;top=0;left=0;right=0;bottom=0;strokeColor=#000000;fontColor=#000000;" vertex="1" parent="189">
                    <mxGeometry y="210" width="240" height="30" as="geometry"/>
                </mxCell>
                <mxCell id="688" value="" style="shape=partialRectangle;connectable=0;fillColor=none;top=0;left=0;bottom=0;right=0;editable=1;overflow=hidden;strokeColor=#000000;fontColor=#000000;" vertex="1" parent="687">
                    <mxGeometry width="30" height="30" as="geometry">
                        <mxRectangle width="30" height="30" as="alternateBounds"/>
                    </mxGeometry>
                </mxCell>
                <mxCell id="689" value="article_state_type_id" style="shape=partialRectangle;connectable=0;fillColor=none;top=0;left=0;bottom=0;right=0;align=left;spacingLeft=6;overflow=hidden;strokeColor=#000000;fontColor=#000000;" vertex="1" parent="687">
                    <mxGeometry x="30" width="210" height="30" as="geometry">
                        <mxRectangle width="210" height="30" as="alternateBounds"/>
                    </mxGeometry>
                </mxCell>
                <mxCell id="208" value="" style="shape=tableRow;horizontal=0;startSize=0;swimlaneHead=0;swimlaneBody=0;fillColor=none;collapsible=0;dropTarget=0;points=[[0,0.5],[1,0.5]];portConstraint=eastwest;top=0;left=0;right=0;bottom=0;strokeColor=#000000;fontColor=#000000;" parent="189" vertex="1">
                    <mxGeometry y="240" width="240" height="30" as="geometry"/>
                </mxCell>
                <mxCell id="209" value="" style="shape=partialRectangle;connectable=0;fillColor=none;top=0;left=0;bottom=0;right=0;editable=1;overflow=hidden;strokeColor=#000000;fontColor=#000000;" parent="208" vertex="1">
                    <mxGeometry width="30" height="30" as="geometry">
                        <mxRectangle width="30" height="30" as="alternateBounds"/>
                    </mxGeometry>
                </mxCell>
                <mxCell id="210" value="created_at" style="shape=partialRectangle;connectable=0;fillColor=none;top=0;left=0;bottom=0;right=0;align=left;spacingLeft=6;overflow=hidden;strokeColor=#000000;fontColor=#000000;" parent="208" vertex="1">
                    <mxGeometry x="30" width="210" height="30" as="geometry">
                        <mxRectangle width="210" height="30" as="alternateBounds"/>
                    </mxGeometry>
                </mxCell>
                <mxCell id="211" value="" style="shape=tableRow;horizontal=0;startSize=0;swimlaneHead=0;swimlaneBody=0;fillColor=none;collapsible=0;dropTarget=0;points=[[0,0.5],[1,0.5]];portConstraint=eastwest;top=0;left=0;right=0;bottom=0;strokeColor=#000000;fontColor=#000000;" parent="189" vertex="1">
                    <mxGeometry y="270" width="240" height="30" as="geometry"/>
                </mxCell>
                <mxCell id="212" value="" style="shape=partialRectangle;connectable=0;fillColor=none;top=0;left=0;bottom=0;right=0;editable=1;overflow=hidden;strokeColor=#000000;fontColor=#000000;" parent="211" vertex="1">
                    <mxGeometry width="30" height="30" as="geometry">
                        <mxRectangle width="30" height="30" as="alternateBounds"/>
                    </mxGeometry>
                </mxCell>
                <mxCell id="213" value="updated_at" style="shape=partialRectangle;connectable=0;fillColor=none;top=0;left=0;bottom=0;right=0;align=left;spacingLeft=6;overflow=hidden;strokeColor=#000000;fontColor=#000000;" parent="211" vertex="1">
                    <mxGeometry x="30" width="210" height="30" as="geometry">
                        <mxRectangle width="210" height="30" as="alternateBounds"/>
                    </mxGeometry>
                </mxCell>
                <mxCell id="639" value="article_state_types（記事状態）" style="shape=table;startSize=30;container=1;collapsible=1;childLayout=tableLayout;fixedRows=1;rowLines=0;fontStyle=1;align=center;resizeLast=1;strokeColor=#000000;fontColor=#fcfcfc;" vertex="1" parent="1">
                    <mxGeometry x="840" y="760" width="240" height="180" as="geometry"/>
                </mxCell>
                <mxCell id="640" value="" style="shape=tableRow;horizontal=0;startSize=0;swimlaneHead=0;swimlaneBody=0;fillColor=none;collapsible=0;dropTarget=0;points=[[0,0.5],[1,0.5]];portConstraint=eastwest;top=0;left=0;right=0;bottom=1;strokeColor=#000000;fontColor=#000000;" vertex="1" parent="639">
                    <mxGeometry y="30" width="240" height="30" as="geometry"/>
                </mxCell>
                <mxCell id="641" value="PK" style="shape=partialRectangle;connectable=0;fillColor=none;top=0;left=0;bottom=0;right=0;fontStyle=1;overflow=hidden;strokeColor=#000000;fontColor=#000000;" vertex="1" parent="640">
                    <mxGeometry width="30" height="30" as="geometry">
                        <mxRectangle width="30" height="30" as="alternateBounds"/>
                    </mxGeometry>
                </mxCell>
                <mxCell id="642" value="id" style="shape=partialRectangle;connectable=0;fillColor=none;top=0;left=0;bottom=0;right=0;align=left;spacingLeft=6;fontStyle=5;overflow=hidden;strokeColor=#000000;fontColor=#000000;" vertex="1" parent="640">
                    <mxGeometry x="30" width="210" height="30" as="geometry">
                        <mxRectangle width="210" height="30" as="alternateBounds"/>
                    </mxGeometry>
                </mxCell>
                <mxCell id="646" value="" style="shape=tableRow;horizontal=0;startSize=0;swimlaneHead=0;swimlaneBody=0;fillColor=none;collapsible=0;dropTarget=0;points=[[0,0.5],[1,0.5]];portConstraint=eastwest;top=0;left=0;right=0;bottom=0;strokeColor=#000000;fontColor=#000000;" vertex="1" parent="639">
                    <mxGeometry y="60" width="240" height="30" as="geometry"/>
                </mxCell>
                <mxCell id="647" value="" style="shape=partialRectangle;connectable=0;fillColor=none;top=0;left=0;bottom=0;right=0;editable=1;overflow=hidden;strokeColor=#000000;fontColor=#000000;" vertex="1" parent="646">
                    <mxGeometry width="30" height="30" as="geometry">
                        <mxRectangle width="30" height="30" as="alternateBounds"/>
                    </mxGeometry>
                </mxCell>
                <mxCell id="648" value="name" style="shape=partialRectangle;connectable=0;fillColor=none;top=0;left=0;bottom=0;right=0;align=left;spacingLeft=6;overflow=hidden;strokeColor=#000000;fontColor=#000000;" vertex="1" parent="646">
                    <mxGeometry x="30" width="210" height="30" as="geometry">
                        <mxRectangle width="210" height="30" as="alternateBounds"/>
                    </mxGeometry>
                </mxCell>
                <mxCell id="652" value="" style="shape=tableRow;horizontal=0;startSize=0;swimlaneHead=0;swimlaneBody=0;fillColor=none;collapsible=0;dropTarget=0;points=[[0,0.5],[1,0.5]];portConstraint=eastwest;top=0;left=0;right=0;bottom=0;strokeColor=#000000;fontColor=#000000;" vertex="1" parent="639">
                    <mxGeometry y="90" width="240" height="30" as="geometry"/>
                </mxCell>
                <mxCell id="653" value="" style="shape=partialRectangle;connectable=0;fillColor=none;top=0;left=0;bottom=0;right=0;editable=1;overflow=hidden;strokeColor=#000000;fontColor=#000000;" vertex="1" parent="652">
                    <mxGeometry width="30" height="30" as="geometry">
                        <mxRectangle width="30" height="30" as="alternateBounds"/>
                    </mxGeometry>
                </mxCell>
                <mxCell id="654" value="status_code" style="shape=partialRectangle;connectable=0;fillColor=none;top=0;left=0;bottom=0;right=0;align=left;spacingLeft=6;overflow=hidden;strokeColor=#000000;fontColor=#000000;" vertex="1" parent="652">
                    <mxGeometry x="30" width="210" height="30" as="geometry">
                        <mxRectangle width="210" height="30" as="alternateBounds"/>
                    </mxGeometry>
                </mxCell>
                <mxCell id="655" value="" style="shape=tableRow;horizontal=0;startSize=0;swimlaneHead=0;swimlaneBody=0;fillColor=none;collapsible=0;dropTarget=0;points=[[0,0.5],[1,0.5]];portConstraint=eastwest;top=0;left=0;right=0;bottom=0;strokeColor=#000000;fontColor=#000000;" vertex="1" parent="639">
                    <mxGeometry y="120" width="240" height="30" as="geometry"/>
                </mxCell>
                <mxCell id="656" value="" style="shape=partialRectangle;connectable=0;fillColor=none;top=0;left=0;bottom=0;right=0;editable=1;overflow=hidden;strokeColor=#000000;fontColor=#000000;" vertex="1" parent="655">
                    <mxGeometry width="30" height="30" as="geometry">
                        <mxRectangle width="30" height="30" as="alternateBounds"/>
                    </mxGeometry>
                </mxCell>
                <mxCell id="657" value="created_at" style="shape=partialRectangle;connectable=0;fillColor=none;top=0;left=0;bottom=0;right=0;align=left;spacingLeft=6;overflow=hidden;strokeColor=#000000;fontColor=#000000;" vertex="1" parent="655">
                    <mxGeometry x="30" width="210" height="30" as="geometry">
                        <mxRectangle width="210" height="30" as="alternateBounds"/>
                    </mxGeometry>
                </mxCell>
                <mxCell id="658" value="" style="shape=tableRow;horizontal=0;startSize=0;swimlaneHead=0;swimlaneBody=0;fillColor=none;collapsible=0;dropTarget=0;points=[[0,0.5],[1,0.5]];portConstraint=eastwest;top=0;left=0;right=0;bottom=0;strokeColor=#000000;fontColor=#000000;" vertex="1" parent="639">
                    <mxGeometry y="150" width="240" height="30" as="geometry"/>
                </mxCell>
                <mxCell id="659" value="" style="shape=partialRectangle;connectable=0;fillColor=none;top=0;left=0;bottom=0;right=0;editable=1;overflow=hidden;strokeColor=#000000;fontColor=#000000;" vertex="1" parent="658">
                    <mxGeometry width="30" height="30" as="geometry">
                        <mxRectangle width="30" height="30" as="alternateBounds"/>
                    </mxGeometry>
                </mxCell>
                <mxCell id="660" value="updated_at" style="shape=partialRectangle;connectable=0;fillColor=none;top=0;left=0;bottom=0;right=0;align=left;spacingLeft=6;overflow=hidden;strokeColor=#000000;fontColor=#000000;" vertex="1" parent="658">
                    <mxGeometry x="30" width="210" height="30" as="geometry">
                        <mxRectangle width="210" height="30" as="alternateBounds"/>
                    </mxGeometry>
                </mxCell>
                <mxCell id="661" value="book_state_types（書籍状態）" style="shape=table;startSize=30;container=1;collapsible=1;childLayout=tableLayout;fixedRows=1;rowLines=0;fontStyle=1;align=center;resizeLast=1;strokeColor=#000000;fontColor=#fcfcfc;" vertex="1" parent="1">
                    <mxGeometry x="840" y="-210" width="240" height="180" as="geometry"/>
                </mxCell>
                <mxCell id="662" value="" style="shape=tableRow;horizontal=0;startSize=0;swimlaneHead=0;swimlaneBody=0;fillColor=none;collapsible=0;dropTarget=0;points=[[0,0.5],[1,0.5]];portConstraint=eastwest;top=0;left=0;right=0;bottom=1;strokeColor=#000000;fontColor=#000000;" vertex="1" parent="661">
                    <mxGeometry y="30" width="240" height="30" as="geometry"/>
                </mxCell>
                <mxCell id="663" value="PK" style="shape=partialRectangle;connectable=0;fillColor=none;top=0;left=0;bottom=0;right=0;fontStyle=1;overflow=hidden;strokeColor=#000000;fontColor=#000000;" vertex="1" parent="662">
                    <mxGeometry width="30" height="30" as="geometry">
                        <mxRectangle width="30" height="30" as="alternateBounds"/>
                    </mxGeometry>
                </mxCell>
                <mxCell id="664" value="id" style="shape=partialRectangle;connectable=0;fillColor=none;top=0;left=0;bottom=0;right=0;align=left;spacingLeft=6;fontStyle=5;overflow=hidden;strokeColor=#000000;fontColor=#000000;" vertex="1" parent="662">
                    <mxGeometry x="30" width="210" height="30" as="geometry">
                        <mxRectangle width="210" height="30" as="alternateBounds"/>
                    </mxGeometry>
                </mxCell>
                <mxCell id="665" value="" style="shape=tableRow;horizontal=0;startSize=0;swimlaneHead=0;swimlaneBody=0;fillColor=none;collapsible=0;dropTarget=0;points=[[0,0.5],[1,0.5]];portConstraint=eastwest;top=0;left=0;right=0;bottom=0;strokeColor=#000000;fontColor=#000000;" vertex="1" parent="661">
                    <mxGeometry y="60" width="240" height="30" as="geometry"/>
                </mxCell>
                <mxCell id="666" value="" style="shape=partialRectangle;connectable=0;fillColor=none;top=0;left=0;bottom=0;right=0;editable=1;overflow=hidden;strokeColor=#000000;fontColor=#000000;" vertex="1" parent="665">
                    <mxGeometry width="30" height="30" as="geometry">
                        <mxRectangle width="30" height="30" as="alternateBounds"/>
                    </mxGeometry>
                </mxCell>
                <mxCell id="667" value="name" style="shape=partialRectangle;connectable=0;fillColor=none;top=0;left=0;bottom=0;right=0;align=left;spacingLeft=6;overflow=hidden;strokeColor=#000000;fontColor=#000000;" vertex="1" parent="665">
                    <mxGeometry x="30" width="210" height="30" as="geometry">
                        <mxRectangle width="210" height="30" as="alternateBounds"/>
                    </mxGeometry>
                </mxCell>
                <mxCell id="668" value="" style="shape=tableRow;horizontal=0;startSize=0;swimlaneHead=0;swimlaneBody=0;fillColor=none;collapsible=0;dropTarget=0;points=[[0,0.5],[1,0.5]];portConstraint=eastwest;top=0;left=0;right=0;bottom=0;strokeColor=#000000;fontColor=#000000;" vertex="1" parent="661">
                    <mxGeometry y="90" width="240" height="30" as="geometry"/>
                </mxCell>
                <mxCell id="669" value="" style="shape=partialRectangle;connectable=0;fillColor=none;top=0;left=0;bottom=0;right=0;editable=1;overflow=hidden;strokeColor=#000000;fontColor=#000000;" vertex="1" parent="668">
                    <mxGeometry width="30" height="30" as="geometry">
                        <mxRectangle width="30" height="30" as="alternateBounds"/>
                    </mxGeometry>
                </mxCell>
                <mxCell id="670" value="code" style="shape=partialRectangle;connectable=0;fillColor=none;top=0;left=0;bottom=0;right=0;align=left;spacingLeft=6;overflow=hidden;strokeColor=#000000;fontColor=#000000;" vertex="1" parent="668">
                    <mxGeometry x="30" width="210" height="30" as="geometry">
                        <mxRectangle width="210" height="30" as="alternateBounds"/>
                    </mxGeometry>
                </mxCell>
                <mxCell id="671" value="" style="shape=tableRow;horizontal=0;startSize=0;swimlaneHead=0;swimlaneBody=0;fillColor=none;collapsible=0;dropTarget=0;points=[[0,0.5],[1,0.5]];portConstraint=eastwest;top=0;left=0;right=0;bottom=0;strokeColor=#000000;fontColor=#000000;" vertex="1" parent="661">
                    <mxGeometry y="120" width="240" height="30" as="geometry"/>
                </mxCell>
                <mxCell id="672" value="" style="shape=partialRectangle;connectable=0;fillColor=none;top=0;left=0;bottom=0;right=0;editable=1;overflow=hidden;strokeColor=#000000;fontColor=#000000;" vertex="1" parent="671">
                    <mxGeometry width="30" height="30" as="geometry">
                        <mxRectangle width="30" height="30" as="alternateBounds"/>
                    </mxGeometry>
                </mxCell>
                <mxCell id="673" value="created_at" style="shape=partialRectangle;connectable=0;fillColor=none;top=0;left=0;bottom=0;right=0;align=left;spacingLeft=6;overflow=hidden;strokeColor=#000000;fontColor=#000000;" vertex="1" parent="671">
                    <mxGeometry x="30" width="210" height="30" as="geometry">
                        <mxRectangle width="210" height="30" as="alternateBounds"/>
                    </mxGeometry>
                </mxCell>
                <mxCell id="674" value="" style="shape=tableRow;horizontal=0;startSize=0;swimlaneHead=0;swimlaneBody=0;fillColor=none;collapsible=0;dropTarget=0;points=[[0,0.5],[1,0.5]];portConstraint=eastwest;top=0;left=0;right=0;bottom=0;strokeColor=#000000;fontColor=#000000;" vertex="1" parent="661">
                    <mxGeometry y="150" width="240" height="30" as="geometry"/>
                </mxCell>
                <mxCell id="675" value="" style="shape=partialRectangle;connectable=0;fillColor=none;top=0;left=0;bottom=0;right=0;editable=1;overflow=hidden;strokeColor=#000000;fontColor=#000000;" vertex="1" parent="674">
                    <mxGeometry width="30" height="30" as="geometry">
                        <mxRectangle width="30" height="30" as="alternateBounds"/>
                    </mxGeometry>
                </mxCell>
                <mxCell id="676" value="updated_at" style="shape=partialRectangle;connectable=0;fillColor=none;top=0;left=0;bottom=0;right=0;align=left;spacingLeft=6;overflow=hidden;strokeColor=#000000;fontColor=#000000;" vertex="1" parent="674">
                    <mxGeometry x="30" width="210" height="30" as="geometry">
                        <mxRectangle width="210" height="30" as="alternateBounds"/>
                    </mxGeometry>
                </mxCell>
                <mxCell id="555" value="article_types（記事種別）" style="shape=table;startSize=30;container=1;collapsible=1;childLayout=tableLayout;fixedRows=1;rowLines=0;fontStyle=1;align=center;resizeLast=1;strokeColor=#000000;fontColor=#ffffff;" parent="1" vertex="1">
                    <mxGeometry x="1240" y="40" width="240" height="240" as="geometry"/>
                </mxCell>
                <mxCell id="556" value="" style="shape=tableRow;horizontal=0;startSize=0;swimlaneHead=0;swimlaneBody=0;fillColor=none;collapsible=0;dropTarget=0;points=[[0,0.5],[1,0.5]];portConstraint=eastwest;top=0;left=0;right=0;bottom=1;strokeColor=#000000;fontColor=#000000;" parent="555" vertex="1">
                    <mxGeometry y="30" width="240" height="30" as="geometry"/>
                </mxCell>
                <mxCell id="557" value="PK" style="shape=partialRectangle;connectable=0;fillColor=none;top=0;left=0;bottom=0;right=0;fontStyle=1;overflow=hidden;strokeColor=#000000;fontColor=#000000;" parent="556" vertex="1">
                    <mxGeometry width="30" height="30" as="geometry">
                        <mxRectangle width="30" height="30" as="alternateBounds"/>
                    </mxGeometry>
                </mxCell>
                <mxCell id="558" value="id" style="shape=partialRectangle;connectable=0;fillColor=none;top=0;left=0;bottom=0;right=0;align=left;spacingLeft=6;fontStyle=5;overflow=hidden;strokeColor=#000000;fontColor=#000000;" parent="556" vertex="1">
                    <mxGeometry x="30" width="210" height="30" as="geometry">
                        <mxRectangle width="210" height="30" as="alternateBounds"/>
                    </mxGeometry>
                </mxCell>
                <mxCell id="559" value="" style="shape=tableRow;horizontal=0;startSize=0;swimlaneHead=0;swimlaneBody=0;fillColor=none;collapsible=0;dropTarget=0;points=[[0,0.5],[1,0.5]];portConstraint=eastwest;top=0;left=0;right=0;bottom=0;strokeColor=#000000;fontColor=#000000;" parent="555" vertex="1">
                    <mxGeometry y="60" width="240" height="30" as="geometry"/>
                </mxCell>
                <mxCell id="560" value="" style="shape=partialRectangle;connectable=0;fillColor=none;top=0;left=0;bottom=0;right=0;editable=1;overflow=hidden;strokeColor=#000000;fontColor=#000000;" parent="559" vertex="1">
                    <mxGeometry width="30" height="30" as="geometry">
                        <mxRectangle width="30" height="30" as="alternateBounds"/>
                    </mxGeometry>
                </mxCell>
                <mxCell id="561" value="book_id" style="shape=partialRectangle;connectable=0;fillColor=none;top=0;left=0;bottom=0;right=0;align=left;spacingLeft=6;overflow=hidden;strokeColor=#000000;fontColor=#000000;" parent="559" vertex="1">
                    <mxGeometry x="30" width="210" height="30" as="geometry">
                        <mxRectangle width="210" height="30" as="alternateBounds"/>
                    </mxGeometry>
                </mxCell>
                <mxCell id="631" value="" style="shape=tableRow;horizontal=0;startSize=0;swimlaneHead=0;swimlaneBody=0;fillColor=none;collapsible=0;dropTarget=0;points=[[0,0.5],[1,0.5]];portConstraint=eastwest;top=0;left=0;right=0;bottom=0;strokeColor=#000000;fontColor=#000000;" parent="555" vertex="1">
                    <mxGeometry y="90" width="240" height="30" as="geometry"/>
                </mxCell>
                <mxCell id="632" value="" style="shape=partialRectangle;connectable=0;fillColor=none;top=0;left=0;bottom=0;right=0;editable=1;overflow=hidden;strokeColor=#000000;fontColor=#000000;" parent="631" vertex="1">
                    <mxGeometry width="30" height="30" as="geometry">
                        <mxRectangle width="30" height="30" as="alternateBounds"/>
                    </mxGeometry>
                </mxCell>
                <mxCell id="633" value="name" style="shape=partialRectangle;connectable=0;fillColor=none;top=0;left=0;bottom=0;right=0;align=left;spacingLeft=6;overflow=hidden;strokeColor=#000000;fontColor=#000000;" parent="631" vertex="1">
                    <mxGeometry x="30" width="210" height="30" as="geometry">
                        <mxRectangle width="210" height="30" as="alternateBounds"/>
                    </mxGeometry>
                </mxCell>
                <mxCell id="635" value="" style="shape=tableRow;horizontal=0;startSize=0;swimlaneHead=0;swimlaneBody=0;fillColor=none;collapsible=0;dropTarget=0;points=[[0,0.5],[1,0.5]];portConstraint=eastwest;top=0;left=0;right=0;bottom=0;strokeColor=#000000;fontColor=#000000;" vertex="1" parent="555">
                    <mxGeometry y="120" width="240" height="30" as="geometry"/>
                </mxCell>
                <mxCell id="636" value="" style="shape=partialRectangle;connectable=0;fillColor=none;top=0;left=0;bottom=0;right=0;editable=1;overflow=hidden;strokeColor=#000000;fontColor=#000000;" vertex="1" parent="635">
                    <mxGeometry width="30" height="30" as="geometry">
                        <mxRectangle width="30" height="30" as="alternateBounds"/>
                    </mxGeometry>
                </mxCell>
                <mxCell id="637" value="depth" style="shape=partialRectangle;connectable=0;fillColor=none;top=0;left=0;bottom=0;right=0;align=left;spacingLeft=6;overflow=hidden;strokeColor=#000000;fontColor=#000000;" vertex="1" parent="635">
                    <mxGeometry x="30" width="210" height="30" as="geometry">
                        <mxRectangle width="210" height="30" as="alternateBounds"/>
                    </mxGeometry>
                </mxCell>
                <mxCell id="680" value="" style="shape=tableRow;horizontal=0;startSize=0;swimlaneHead=0;swimlaneBody=0;fillColor=none;collapsible=0;dropTarget=0;points=[[0,0.5],[1,0.5]];portConstraint=eastwest;top=0;left=0;right=0;bottom=0;strokeColor=#000000;fontColor=#000000;" vertex="1" parent="555">
                    <mxGeometry y="150" width="240" height="30" as="geometry"/>
                </mxCell>
                <mxCell id="681" value="" style="shape=partialRectangle;connectable=0;fillColor=none;top=0;left=0;bottom=0;right=0;editable=1;overflow=hidden;strokeColor=#000000;fontColor=#000000;" vertex="1" parent="680">
                    <mxGeometry width="30" height="30" as="geometry">
                        <mxRectangle width="30" height="30" as="alternateBounds"/>
                    </mxGeometry>
                </mxCell>
                <mxCell id="682" value="template_id" style="shape=partialRectangle;connectable=0;fillColor=none;top=0;left=0;bottom=0;right=0;align=left;spacingLeft=6;overflow=hidden;strokeColor=#000000;fontColor=#000000;" vertex="1" parent="680">
                    <mxGeometry x="30" width="210" height="30" as="geometry">
                        <mxRectangle width="210" height="30" as="alternateBounds"/>
                    </mxGeometry>
                </mxCell>
                <mxCell id="580" value="" style="shape=tableRow;horizontal=0;startSize=0;swimlaneHead=0;swimlaneBody=0;fillColor=none;collapsible=0;dropTarget=0;points=[[0,0.5],[1,0.5]];portConstraint=eastwest;top=0;left=0;right=0;bottom=0;strokeColor=#000000;fontColor=#000000;" parent="555" vertex="1">
                    <mxGeometry y="180" width="240" height="30" as="geometry"/>
                </mxCell>
                <mxCell id="581" value="" style="shape=partialRectangle;connectable=0;fillColor=none;top=0;left=0;bottom=0;right=0;editable=1;overflow=hidden;strokeColor=#000000;fontColor=#000000;" parent="580" vertex="1">
                    <mxGeometry width="30" height="30" as="geometry">
                        <mxRectangle width="30" height="30" as="alternateBounds"/>
                    </mxGeometry>
                </mxCell>
                <mxCell id="582" value="created_at" style="shape=partialRectangle;connectable=0;fillColor=none;top=0;left=0;bottom=0;right=0;align=left;spacingLeft=6;overflow=hidden;strokeColor=#000000;fontColor=#000000;" parent="580" vertex="1">
                    <mxGeometry x="30" width="210" height="30" as="geometry">
                        <mxRectangle width="210" height="30" as="alternateBounds"/>
                    </mxGeometry>
                </mxCell>
                <mxCell id="583" value="" style="shape=tableRow;horizontal=0;startSize=0;swimlaneHead=0;swimlaneBody=0;fillColor=none;collapsible=0;dropTarget=0;points=[[0,0.5],[1,0.5]];portConstraint=eastwest;top=0;left=0;right=0;bottom=0;strokeColor=#000000;fontColor=#000000;" parent="555" vertex="1">
                    <mxGeometry y="210" width="240" height="30" as="geometry"/>
                </mxCell>
                <mxCell id="584" value="" style="shape=partialRectangle;connectable=0;fillColor=none;top=0;left=0;bottom=0;right=0;editable=1;overflow=hidden;strokeColor=#000000;fontColor=#000000;" parent="583" vertex="1">
                    <mxGeometry width="30" height="30" as="geometry">
                        <mxRectangle width="30" height="30" as="alternateBounds"/>
                    </mxGeometry>
                </mxCell>
                <mxCell id="585" value="updated_at" style="shape=partialRectangle;connectable=0;fillColor=none;top=0;left=0;bottom=0;right=0;align=left;spacingLeft=6;overflow=hidden;strokeColor=#000000;fontColor=#000000;" parent="583" vertex="1">
                    <mxGeometry x="30" width="210" height="30" as="geometry">
                        <mxRectangle width="210" height="30" as="alternateBounds"/>
                    </mxGeometry>
                </mxCell>
                <mxCell id="321" value="images（画像管理用）" style="shape=table;startSize=30;container=1;collapsible=1;childLayout=tableLayout;fixedRows=1;rowLines=0;fontStyle=1;align=center;resizeLast=1;strokeColor=#000000;fontColor=#FFFFFF;" parent="1" vertex="1">
                    <mxGeometry x="1720" y="40" width="240" height="210" as="geometry"/>
                </mxCell>
                <mxCell id="322" value="" style="shape=tableRow;horizontal=0;startSize=0;swimlaneHead=0;swimlaneBody=0;fillColor=none;collapsible=0;dropTarget=0;points=[[0,0.5],[1,0.5]];portConstraint=eastwest;top=0;left=0;right=0;bottom=1;strokeColor=#000000;fontColor=#000000;" parent="321" vertex="1">
                    <mxGeometry y="30" width="240" height="30" as="geometry"/>
                </mxCell>
                <mxCell id="323" value="PK" style="shape=partialRectangle;connectable=0;fillColor=none;top=0;left=0;bottom=0;right=0;fontStyle=1;overflow=hidden;strokeColor=#000000;fontColor=#000000;" parent="322" vertex="1">
                    <mxGeometry width="30" height="30" as="geometry">
                        <mxRectangle width="30" height="30" as="alternateBounds"/>
                    </mxGeometry>
                </mxCell>
                <mxCell id="324" value="id" style="shape=partialRectangle;connectable=0;fillColor=none;top=0;left=0;bottom=0;right=0;align=left;spacingLeft=6;fontStyle=5;overflow=hidden;strokeColor=#000000;fontColor=#000000;" parent="322" vertex="1">
                    <mxGeometry x="30" width="210" height="30" as="geometry">
                        <mxRectangle width="210" height="30" as="alternateBounds"/>
                    </mxGeometry>
                </mxCell>
                <mxCell id="325" value="" style="shape=tableRow;horizontal=0;startSize=0;swimlaneHead=0;swimlaneBody=0;fillColor=none;collapsible=0;dropTarget=0;points=[[0,0.5],[1,0.5]];portConstraint=eastwest;top=0;left=0;right=0;bottom=0;strokeColor=#000000;fontColor=#000000;" parent="321" vertex="1">
                    <mxGeometry y="60" width="240" height="30" as="geometry"/>
                </mxCell>
                <mxCell id="326" value="" style="shape=partialRectangle;connectable=0;fillColor=none;top=0;left=0;bottom=0;right=0;editable=1;overflow=hidden;strokeColor=#000000;fontColor=#000000;" parent="325" vertex="1">
                    <mxGeometry width="30" height="30" as="geometry">
                        <mxRectangle width="30" height="30" as="alternateBounds"/>
                    </mxGeometry>
                </mxCell>
                <mxCell id="327" value="book_id" style="shape=partialRectangle;connectable=0;fillColor=none;top=0;left=0;bottom=0;right=0;align=left;spacingLeft=6;overflow=hidden;strokeColor=#000000;fontColor=#000000;" parent="325" vertex="1">
                    <mxGeometry x="30" width="210" height="30" as="geometry">
                        <mxRectangle width="210" height="30" as="alternateBounds"/>
                    </mxGeometry>
                </mxCell>
                <mxCell id="690" value="" style="shape=tableRow;horizontal=0;startSize=0;swimlaneHead=0;swimlaneBody=0;fillColor=none;collapsible=0;dropTarget=0;points=[[0,0.5],[1,0.5]];portConstraint=eastwest;top=0;left=0;right=0;bottom=0;strokeColor=#000000;fontColor=#000000;" vertex="1" parent="321">
                    <mxGeometry y="90" width="240" height="30" as="geometry"/>
                </mxCell>
                <mxCell id="691" value="" style="shape=partialRectangle;connectable=0;fillColor=none;top=0;left=0;bottom=0;right=0;editable=1;overflow=hidden;strokeColor=#000000;fontColor=#000000;" vertex="1" parent="690">
                    <mxGeometry width="30" height="30" as="geometry">
                        <mxRectangle width="30" height="30" as="alternateBounds"/>
                    </mxGeometry>
                </mxCell>
                <mxCell id="692" value="path" style="shape=partialRectangle;connectable=0;fillColor=none;top=0;left=0;bottom=0;right=0;align=left;spacingLeft=6;overflow=hidden;strokeColor=#000000;fontColor=#000000;" vertex="1" parent="690">
                    <mxGeometry x="30" width="210" height="30" as="geometry">
                        <mxRectangle width="210" height="30" as="alternateBounds"/>
                    </mxGeometry>
                </mxCell>
                <mxCell id="328" value="" style="shape=tableRow;horizontal=0;startSize=0;swimlaneHead=0;swimlaneBody=0;fillColor=none;collapsible=0;dropTarget=0;points=[[0,0.5],[1,0.5]];portConstraint=eastwest;top=0;left=0;right=0;bottom=0;strokeColor=#000000;fontColor=#000000;" parent="321" vertex="1">
                    <mxGeometry y="120" width="240" height="30" as="geometry"/>
                </mxCell>
                <mxCell id="329" value="" style="shape=partialRectangle;connectable=0;fillColor=none;top=0;left=0;bottom=0;right=0;editable=1;overflow=hidden;strokeColor=#000000;fontColor=#000000;" parent="328" vertex="1">
                    <mxGeometry width="30" height="30" as="geometry">
                        <mxRectangle width="30" height="30" as="alternateBounds"/>
                    </mxGeometry>
                </mxCell>
                <mxCell id="330" value="image_state_type_id" style="shape=partialRectangle;connectable=0;fillColor=none;top=0;left=0;bottom=0;right=0;align=left;spacingLeft=6;overflow=hidden;strokeColor=#000000;fontColor=#000000;" parent="328" vertex="1">
                    <mxGeometry x="30" width="210" height="30" as="geometry">
                        <mxRectangle width="210" height="30" as="alternateBounds"/>
                    </mxGeometry>
                </mxCell>
                <mxCell id="334" value="" style="shape=tableRow;horizontal=0;startSize=0;swimlaneHead=0;swimlaneBody=0;fillColor=none;collapsible=0;dropTarget=0;points=[[0,0.5],[1,0.5]];portConstraint=eastwest;top=0;left=0;right=0;bottom=0;strokeColor=#000000;fontColor=#000000;" parent="321" vertex="1">
                    <mxGeometry y="150" width="240" height="30" as="geometry"/>
                </mxCell>
                <mxCell id="335" value="" style="shape=partialRectangle;connectable=0;fillColor=none;top=0;left=0;bottom=0;right=0;editable=1;overflow=hidden;strokeColor=#000000;fontColor=#000000;" parent="334" vertex="1">
                    <mxGeometry width="30" height="30" as="geometry">
                        <mxRectangle width="30" height="30" as="alternateBounds"/>
                    </mxGeometry>
                </mxCell>
                <mxCell id="336" value="created_at" style="shape=partialRectangle;connectable=0;fillColor=none;top=0;left=0;bottom=0;right=0;align=left;spacingLeft=6;overflow=hidden;strokeColor=#000000;fontColor=#000000;" parent="334" vertex="1">
                    <mxGeometry x="30" width="210" height="30" as="geometry">
                        <mxRectangle width="210" height="30" as="alternateBounds"/>
                    </mxGeometry>
                </mxCell>
                <mxCell id="337" value="" style="shape=tableRow;horizontal=0;startSize=0;swimlaneHead=0;swimlaneBody=0;fillColor=none;collapsible=0;dropTarget=0;points=[[0,0.5],[1,0.5]];portConstraint=eastwest;top=0;left=0;right=0;bottom=0;strokeColor=#000000;fontColor=#000000;" parent="321" vertex="1">
                    <mxGeometry y="180" width="240" height="30" as="geometry"/>
                </mxCell>
                <mxCell id="338" value="" style="shape=partialRectangle;connectable=0;fillColor=none;top=0;left=0;bottom=0;right=0;editable=1;overflow=hidden;strokeColor=#000000;fontColor=#000000;" parent="337" vertex="1">
                    <mxGeometry width="30" height="30" as="geometry">
                        <mxRectangle width="30" height="30" as="alternateBounds"/>
                    </mxGeometry>
                </mxCell>
                <mxCell id="339" value="updated_at" style="shape=partialRectangle;connectable=0;fillColor=none;top=0;left=0;bottom=0;right=0;align=left;spacingLeft=6;overflow=hidden;strokeColor=#000000;fontColor=#000000;" parent="337" vertex="1">
                    <mxGeometry x="30" width="210" height="30" as="geometry">
                        <mxRectangle width="210" height="30" as="alternateBounds"/>
                    </mxGeometry>
                </mxCell>
                <mxCell id="341" value="image_state_types" style="shape=table;startSize=30;container=1;collapsible=1;childLayout=tableLayout;fixedRows=1;rowLines=0;fontStyle=1;align=center;resizeLast=1;strokeColor=#000000;fontColor=#FFFFFF;" parent="1" vertex="1">
                    <mxGeometry x="2120" y="40" width="240" height="180" as="geometry"/>
                </mxCell>
                <mxCell id="342" value="" style="shape=tableRow;horizontal=0;startSize=0;swimlaneHead=0;swimlaneBody=0;fillColor=none;collapsible=0;dropTarget=0;points=[[0,0.5],[1,0.5]];portConstraint=eastwest;top=0;left=0;right=0;bottom=1;strokeColor=#000000;fontColor=#000000;" parent="341" vertex="1">
                    <mxGeometry y="30" width="240" height="30" as="geometry"/>
                </mxCell>
                <mxCell id="343" value="PK" style="shape=partialRectangle;connectable=0;fillColor=none;top=0;left=0;bottom=0;right=0;fontStyle=1;overflow=hidden;strokeColor=#000000;fontColor=#000000;" parent="342" vertex="1">
                    <mxGeometry width="30" height="30" as="geometry">
                        <mxRectangle width="30" height="30" as="alternateBounds"/>
                    </mxGeometry>
                </mxCell>
                <mxCell id="344" value="id" style="shape=partialRectangle;connectable=0;fillColor=none;top=0;left=0;bottom=0;right=0;align=left;spacingLeft=6;fontStyle=5;overflow=hidden;strokeColor=#000000;fontColor=#000000;" parent="342" vertex="1">
                    <mxGeometry x="30" width="210" height="30" as="geometry">
                        <mxRectangle width="210" height="30" as="alternateBounds"/>
                    </mxGeometry>
                </mxCell>
                <mxCell id="348" value="" style="shape=tableRow;horizontal=0;startSize=0;swimlaneHead=0;swimlaneBody=0;fillColor=none;collapsible=0;dropTarget=0;points=[[0,0.5],[1,0.5]];portConstraint=eastwest;top=0;left=0;right=0;bottom=0;strokeColor=#000000;fontColor=#000000;" parent="341" vertex="1">
                    <mxGeometry y="60" width="240" height="30" as="geometry"/>
                </mxCell>
                <mxCell id="349" value="" style="shape=partialRectangle;connectable=0;fillColor=none;top=0;left=0;bottom=0;right=0;editable=1;overflow=hidden;strokeColor=#000000;fontColor=#000000;" parent="348" vertex="1">
                    <mxGeometry width="30" height="30" as="geometry">
                        <mxRectangle width="30" height="30" as="alternateBounds"/>
                    </mxGeometry>
                </mxCell>
                <mxCell id="350" value="name" style="shape=partialRectangle;connectable=0;fillColor=none;top=0;left=0;bottom=0;right=0;align=left;spacingLeft=6;overflow=hidden;strokeColor=#000000;fontColor=#000000;" parent="348" vertex="1">
                    <mxGeometry x="30" width="210" height="30" as="geometry">
                        <mxRectangle width="210" height="30" as="alternateBounds"/>
                    </mxGeometry>
                </mxCell>
                <mxCell id="693" value="" style="shape=tableRow;horizontal=0;startSize=0;swimlaneHead=0;swimlaneBody=0;fillColor=none;collapsible=0;dropTarget=0;points=[[0,0.5],[1,0.5]];portConstraint=eastwest;top=0;left=0;right=0;bottom=0;strokeColor=#000000;fontColor=#000000;" vertex="1" parent="341">
                    <mxGeometry y="90" width="240" height="30" as="geometry"/>
                </mxCell>
                <mxCell id="694" value="" style="shape=partialRectangle;connectable=0;fillColor=none;top=0;left=0;bottom=0;right=0;editable=1;overflow=hidden;strokeColor=#000000;fontColor=#000000;" vertex="1" parent="693">
                    <mxGeometry width="30" height="30" as="geometry">
                        <mxRectangle width="30" height="30" as="alternateBounds"/>
                    </mxGeometry>
                </mxCell>
                <mxCell id="695" value="code" style="shape=partialRectangle;connectable=0;fillColor=none;top=0;left=0;bottom=0;right=0;align=left;spacingLeft=6;overflow=hidden;strokeColor=#000000;fontColor=#000000;" vertex="1" parent="693">
                    <mxGeometry x="30" width="210" height="30" as="geometry">
                        <mxRectangle width="210" height="30" as="alternateBounds"/>
                    </mxGeometry>
                </mxCell>
                <mxCell id="351" value="" style="shape=tableRow;horizontal=0;startSize=0;swimlaneHead=0;swimlaneBody=0;fillColor=none;collapsible=0;dropTarget=0;points=[[0,0.5],[1,0.5]];portConstraint=eastwest;top=0;left=0;right=0;bottom=0;strokeColor=#000000;fontColor=#000000;" parent="341" vertex="1">
                    <mxGeometry y="120" width="240" height="30" as="geometry"/>
                </mxCell>
                <mxCell id="352" value="" style="shape=partialRectangle;connectable=0;fillColor=none;top=0;left=0;bottom=0;right=0;editable=1;overflow=hidden;strokeColor=#000000;fontColor=#000000;" parent="351" vertex="1">
                    <mxGeometry width="30" height="30" as="geometry">
                        <mxRectangle width="30" height="30" as="alternateBounds"/>
                    </mxGeometry>
                </mxCell>
                <mxCell id="353" value="created_at" style="shape=partialRectangle;connectable=0;fillColor=none;top=0;left=0;bottom=0;right=0;align=left;spacingLeft=6;overflow=hidden;strokeColor=#000000;fontColor=#000000;" parent="351" vertex="1">
                    <mxGeometry x="30" width="210" height="30" as="geometry">
                        <mxRectangle width="210" height="30" as="alternateBounds"/>
                    </mxGeometry>
                </mxCell>
                <mxCell id="354" value="" style="shape=tableRow;horizontal=0;startSize=0;swimlaneHead=0;swimlaneBody=0;fillColor=none;collapsible=0;dropTarget=0;points=[[0,0.5],[1,0.5]];portConstraint=eastwest;top=0;left=0;right=0;bottom=0;strokeColor=#000000;fontColor=#000000;" parent="341" vertex="1">
                    <mxGeometry y="150" width="240" height="30" as="geometry"/>
                </mxCell>
                <mxCell id="355" value="" style="shape=partialRectangle;connectable=0;fillColor=none;top=0;left=0;bottom=0;right=0;editable=1;overflow=hidden;strokeColor=#000000;fontColor=#000000;" parent="354" vertex="1">
                    <mxGeometry width="30" height="30" as="geometry">
                        <mxRectangle width="30" height="30" as="alternateBounds"/>
                    </mxGeometry>
                </mxCell>
                <mxCell id="356" value="updated_at" style="shape=partialRectangle;connectable=0;fillColor=none;top=0;left=0;bottom=0;right=0;align=left;spacingLeft=6;overflow=hidden;strokeColor=#000000;fontColor=#000000;" parent="354" vertex="1">
                    <mxGeometry x="30" width="210" height="30" as="geometry">
                        <mxRectangle width="210" height="30" as="alternateBounds"/>
                    </mxGeometry>
                </mxCell>
                <mxCell id="246" value="templates" style="shape=table;startSize=30;container=1;collapsible=1;childLayout=tableLayout;fixedRows=1;rowLines=0;fontStyle=1;align=center;resizeLast=1;strokeColor=#000000;fontColor=#FFFFFF;" parent="1" vertex="1">
                    <mxGeometry x="1720" y="410" width="240" height="180" as="geometry"/>
                </mxCell>
                <mxCell id="247" value="" style="shape=tableRow;horizontal=0;startSize=0;swimlaneHead=0;swimlaneBody=0;fillColor=none;collapsible=0;dropTarget=0;points=[[0,0.5],[1,0.5]];portConstraint=eastwest;top=0;left=0;right=0;bottom=1;strokeColor=#000000;fontColor=#000000;" parent="246" vertex="1">
                    <mxGeometry y="30" width="240" height="30" as="geometry"/>
                </mxCell>
                <mxCell id="248" value="PK" style="shape=partialRectangle;connectable=0;fillColor=none;top=0;left=0;bottom=0;right=0;fontStyle=1;overflow=hidden;strokeColor=#000000;fontColor=#000000;" parent="247" vertex="1">
                    <mxGeometry width="30" height="30" as="geometry">
                        <mxRectangle width="30" height="30" as="alternateBounds"/>
                    </mxGeometry>
                </mxCell>
                <mxCell id="249" value="id" style="shape=partialRectangle;connectable=0;fillColor=none;top=0;left=0;bottom=0;right=0;align=left;spacingLeft=6;fontStyle=5;overflow=hidden;strokeColor=#000000;fontColor=#000000;" parent="247" vertex="1">
                    <mxGeometry x="30" width="210" height="30" as="geometry">
                        <mxRectangle width="210" height="30" as="alternateBounds"/>
                    </mxGeometry>
                </mxCell>
                <mxCell id="250" value="" style="shape=tableRow;horizontal=0;startSize=0;swimlaneHead=0;swimlaneBody=0;fillColor=none;collapsible=0;dropTarget=0;points=[[0,0.5],[1,0.5]];portConstraint=eastwest;top=0;left=0;right=0;bottom=0;strokeColor=#000000;fontColor=#000000;" parent="246" vertex="1">
                    <mxGeometry y="60" width="240" height="30" as="geometry"/>
                </mxCell>
                <mxCell id="251" value="" style="shape=partialRectangle;connectable=0;fillColor=none;top=0;left=0;bottom=0;right=0;editable=1;overflow=hidden;strokeColor=#000000;fontColor=#000000;" parent="250" vertex="1">
                    <mxGeometry width="30" height="30" as="geometry">
                        <mxRectangle width="30" height="30" as="alternateBounds"/>
                    </mxGeometry>
                </mxCell>
                <mxCell id="252" value="name" style="shape=partialRectangle;connectable=0;fillColor=none;top=0;left=0;bottom=0;right=0;align=left;spacingLeft=6;overflow=hidden;strokeColor=#000000;fontColor=#000000;" parent="250" vertex="1">
                    <mxGeometry x="30" width="210" height="30" as="geometry">
                        <mxRectangle width="210" height="30" as="alternateBounds"/>
                    </mxGeometry>
                </mxCell>
                <mxCell id="253" value="" style="shape=tableRow;horizontal=0;startSize=0;swimlaneHead=0;swimlaneBody=0;fillColor=none;collapsible=0;dropTarget=0;points=[[0,0.5],[1,0.5]];portConstraint=eastwest;top=0;left=0;right=0;bottom=0;strokeColor=#000000;fontColor=#000000;" parent="246" vertex="1">
                    <mxGeometry y="90" width="240" height="30" as="geometry"/>
                </mxCell>
                <mxCell id="254" value="" style="shape=partialRectangle;connectable=0;fillColor=none;top=0;left=0;bottom=0;right=0;editable=1;overflow=hidden;strokeColor=#000000;fontColor=#000000;" parent="253" vertex="1">
                    <mxGeometry width="30" height="30" as="geometry">
                        <mxRectangle width="30" height="30" as="alternateBounds"/>
                    </mxGeometry>
                </mxCell>
                <mxCell id="255" value="path" style="shape=partialRectangle;connectable=0;fillColor=none;top=0;left=0;bottom=0;right=0;align=left;spacingLeft=6;overflow=hidden;strokeColor=#000000;fontColor=#000000;" parent="253" vertex="1">
                    <mxGeometry x="30" width="210" height="30" as="geometry">
                        <mxRectangle width="210" height="30" as="alternateBounds"/>
                    </mxGeometry>
                </mxCell>
                <mxCell id="268" value="" style="shape=tableRow;horizontal=0;startSize=0;swimlaneHead=0;swimlaneBody=0;fillColor=none;collapsible=0;dropTarget=0;points=[[0,0.5],[1,0.5]];portConstraint=eastwest;top=0;left=0;right=0;bottom=0;strokeColor=#000000;fontColor=#000000;" parent="246" vertex="1">
                    <mxGeometry y="120" width="240" height="30" as="geometry"/>
                </mxCell>
                <mxCell id="269" value="" style="shape=partialRectangle;connectable=0;fillColor=none;top=0;left=0;bottom=0;right=0;editable=1;overflow=hidden;strokeColor=#000000;fontColor=#000000;" parent="268" vertex="1">
                    <mxGeometry width="30" height="30" as="geometry">
                        <mxRectangle width="30" height="30" as="alternateBounds"/>
                    </mxGeometry>
                </mxCell>
                <mxCell id="270" value="created_at" style="shape=partialRectangle;connectable=0;fillColor=none;top=0;left=0;bottom=0;right=0;align=left;spacingLeft=6;overflow=hidden;strokeColor=#000000;fontColor=#000000;" parent="268" vertex="1">
                    <mxGeometry x="30" width="210" height="30" as="geometry">
                        <mxRectangle width="210" height="30" as="alternateBounds"/>
                    </mxGeometry>
                </mxCell>
                <mxCell id="271" value="" style="shape=tableRow;horizontal=0;startSize=0;swimlaneHead=0;swimlaneBody=0;fillColor=none;collapsible=0;dropTarget=0;points=[[0,0.5],[1,0.5]];portConstraint=eastwest;top=0;left=0;right=0;bottom=0;strokeColor=#000000;fontColor=#000000;" parent="246" vertex="1">
                    <mxGeometry y="150" width="240" height="30" as="geometry"/>
                </mxCell>
                <mxCell id="272" value="" style="shape=partialRectangle;connectable=0;fillColor=none;top=0;left=0;bottom=0;right=0;editable=1;overflow=hidden;strokeColor=#000000;fontColor=#000000;" parent="271" vertex="1">
                    <mxGeometry width="30" height="30" as="geometry">
                        <mxRectangle width="30" height="30" as="alternateBounds"/>
                    </mxGeometry>
                </mxCell>
                <mxCell id="273" value="updated_at" style="shape=partialRectangle;connectable=0;fillColor=none;top=0;left=0;bottom=0;right=0;align=left;spacingLeft=6;overflow=hidden;strokeColor=#000000;fontColor=#000000;" parent="271" vertex="1">
                    <mxGeometry x="30" width="210" height="30" as="geometry">
                        <mxRectangle width="210" height="30" as="alternateBounds"/>
                    </mxGeometry>
                </mxCell>
                <mxCell id="274" value="libraries" style="shape=table;startSize=30;container=1;collapsible=1;childLayout=tableLayout;fixedRows=1;rowLines=0;fontStyle=1;align=center;resizeLast=1;strokeColor=#000000;fontColor=#FFFFFF;" parent="1" vertex="1">
                    <mxGeometry x="2079" y="410" width="240" height="210" as="geometry"/>
                </mxCell>
                <mxCell id="275" value="" style="shape=tableRow;horizontal=0;startSize=0;swimlaneHead=0;swimlaneBody=0;fillColor=none;collapsible=0;dropTarget=0;points=[[0,0.5],[1,0.5]];portConstraint=eastwest;top=0;left=0;right=0;bottom=1;strokeColor=#000000;fontColor=#000000;" parent="274" vertex="1">
                    <mxGeometry y="30" width="240" height="30" as="geometry"/>
                </mxCell>
                <mxCell id="276" value="PK" style="shape=partialRectangle;connectable=0;fillColor=none;top=0;left=0;bottom=0;right=0;fontStyle=1;overflow=hidden;strokeColor=#000000;fontColor=#000000;" parent="275" vertex="1">
                    <mxGeometry width="30" height="30" as="geometry">
                        <mxRectangle width="30" height="30" as="alternateBounds"/>
                    </mxGeometry>
                </mxCell>
                <mxCell id="277" value="id" style="shape=partialRectangle;connectable=0;fillColor=none;top=0;left=0;bottom=0;right=0;align=left;spacingLeft=6;fontStyle=5;overflow=hidden;strokeColor=#000000;fontColor=#000000;" parent="275" vertex="1">
                    <mxGeometry x="30" width="210" height="30" as="geometry">
                        <mxRectangle width="210" height="30" as="alternateBounds"/>
                    </mxGeometry>
                </mxCell>
                <mxCell id="278" value="" style="shape=tableRow;horizontal=0;startSize=0;swimlaneHead=0;swimlaneBody=0;fillColor=none;collapsible=0;dropTarget=0;points=[[0,0.5],[1,0.5]];portConstraint=eastwest;top=0;left=0;right=0;bottom=0;strokeColor=#000000;fontColor=#000000;" parent="274" vertex="1">
                    <mxGeometry y="60" width="240" height="30" as="geometry"/>
                </mxCell>
                <mxCell id="279" value="" style="shape=partialRectangle;connectable=0;fillColor=none;top=0;left=0;bottom=0;right=0;editable=1;overflow=hidden;strokeColor=#000000;fontColor=#000000;" parent="278" vertex="1">
                    <mxGeometry width="30" height="30" as="geometry">
                        <mxRectangle width="30" height="30" as="alternateBounds"/>
                    </mxGeometry>
                </mxCell>
                <mxCell id="280" value="name" style="shape=partialRectangle;connectable=0;fillColor=none;top=0;left=0;bottom=0;right=0;align=left;spacingLeft=6;overflow=hidden;strokeColor=#000000;fontColor=#000000;" parent="278" vertex="1">
                    <mxGeometry x="30" width="210" height="30" as="geometry">
                        <mxRectangle width="210" height="30" as="alternateBounds"/>
                    </mxGeometry>
                </mxCell>
                <mxCell id="281" value="" style="shape=tableRow;horizontal=0;startSize=0;swimlaneHead=0;swimlaneBody=0;fillColor=none;collapsible=0;dropTarget=0;points=[[0,0.5],[1,0.5]];portConstraint=eastwest;top=0;left=0;right=0;bottom=0;strokeColor=#000000;fontColor=#000000;" parent="274" vertex="1">
                    <mxGeometry y="90" width="240" height="30" as="geometry"/>
                </mxCell>
                <mxCell id="282" value="" style="shape=partialRectangle;connectable=0;fillColor=none;top=0;left=0;bottom=0;right=0;editable=1;overflow=hidden;strokeColor=#000000;fontColor=#000000;" parent="281" vertex="1">
                    <mxGeometry width="30" height="30" as="geometry">
                        <mxRectangle width="30" height="30" as="alternateBounds"/>
                    </mxGeometry>
                </mxCell>
                <mxCell id="283" value="path" style="shape=partialRectangle;connectable=0;fillColor=none;top=0;left=0;bottom=0;right=0;align=left;spacingLeft=6;overflow=hidden;strokeColor=#000000;fontColor=#000000;" parent="281" vertex="1">
                    <mxGeometry x="30" width="210" height="30" as="geometry">
                        <mxRectangle width="210" height="30" as="alternateBounds"/>
                    </mxGeometry>
                </mxCell>
                <mxCell id="284" value="" style="shape=tableRow;horizontal=0;startSize=0;swimlaneHead=0;swimlaneBody=0;fillColor=none;collapsible=0;dropTarget=0;points=[[0,0.5],[1,0.5]];portConstraint=eastwest;top=0;left=0;right=0;bottom=0;strokeColor=#000000;fontColor=#000000;" parent="274" vertex="1">
                    <mxGeometry y="120" width="240" height="30" as="geometry"/>
                </mxCell>
                <mxCell id="285" value="" style="shape=partialRectangle;connectable=0;fillColor=none;top=0;left=0;bottom=0;right=0;editable=1;overflow=hidden;strokeColor=#000000;fontColor=#000000;" parent="284" vertex="1">
                    <mxGeometry width="30" height="30" as="geometry">
                        <mxRectangle width="30" height="30" as="alternateBounds"/>
                    </mxGeometry>
                </mxCell>
                <mxCell id="286" value="template_id " style="shape=partialRectangle;connectable=0;fillColor=none;top=0;left=0;bottom=0;right=0;align=left;spacingLeft=6;overflow=hidden;strokeColor=#000000;fontColor=#000000;" parent="284" vertex="1">
                    <mxGeometry x="30" width="210" height="30" as="geometry">
                        <mxRectangle width="210" height="30" as="alternateBounds"/>
                    </mxGeometry>
                </mxCell>
                <mxCell id="287" value="" style="shape=tableRow;horizontal=0;startSize=0;swimlaneHead=0;swimlaneBody=0;fillColor=none;collapsible=0;dropTarget=0;points=[[0,0.5],[1,0.5]];portConstraint=eastwest;top=0;left=0;right=0;bottom=0;strokeColor=#000000;fontColor=#000000;" parent="274" vertex="1">
                    <mxGeometry y="150" width="240" height="30" as="geometry"/>
                </mxCell>
                <mxCell id="288" value="" style="shape=partialRectangle;connectable=0;fillColor=none;top=0;left=0;bottom=0;right=0;editable=1;overflow=hidden;strokeColor=#000000;fontColor=#000000;" parent="287" vertex="1">
                    <mxGeometry width="30" height="30" as="geometry">
                        <mxRectangle width="30" height="30" as="alternateBounds"/>
                    </mxGeometry>
                </mxCell>
                <mxCell id="289" value="created_at" style="shape=partialRectangle;connectable=0;fillColor=none;top=0;left=0;bottom=0;right=0;align=left;spacingLeft=6;overflow=hidden;strokeColor=#000000;fontColor=#000000;" parent="287" vertex="1">
                    <mxGeometry x="30" width="210" height="30" as="geometry">
                        <mxRectangle width="210" height="30" as="alternateBounds"/>
                    </mxGeometry>
                </mxCell>
                <mxCell id="290" value="" style="shape=tableRow;horizontal=0;startSize=0;swimlaneHead=0;swimlaneBody=0;fillColor=none;collapsible=0;dropTarget=0;points=[[0,0.5],[1,0.5]];portConstraint=eastwest;top=0;left=0;right=0;bottom=0;strokeColor=#000000;fontColor=#000000;" parent="274" vertex="1">
                    <mxGeometry y="180" width="240" height="30" as="geometry"/>
                </mxCell>
                <mxCell id="291" value="" style="shape=partialRectangle;connectable=0;fillColor=none;top=0;left=0;bottom=0;right=0;editable=1;overflow=hidden;strokeColor=#000000;fontColor=#000000;" parent="290" vertex="1">
                    <mxGeometry width="30" height="30" as="geometry">
                        <mxRectangle width="30" height="30" as="alternateBounds"/>
                    </mxGeometry>
                </mxCell>
                <mxCell id="292" value="updated_at" style="shape=partialRectangle;connectable=0;fillColor=none;top=0;left=0;bottom=0;right=0;align=left;spacingLeft=6;overflow=hidden;strokeColor=#000000;fontColor=#000000;" parent="290" vertex="1">
                    <mxGeometry x="30" width="210" height="30" as="geometry">
                        <mxRectangle width="210" height="30" as="alternateBounds"/>
                    </mxGeometry>
                </mxCell>
                <mxCell id="340" value="&lt;font color=&quot;#ffffff&quot;&gt;status =&amp;nbsp;&lt;br&gt;オリジナルのみ&lt;br&gt;作成済み（出版前）&lt;br&gt;出版実績あり&lt;/font&gt;" style="rounded=0;whiteSpace=wrap;html=1;strokeColor=#000000;fontColor=#000000;" parent="1" vertex="1">
                    <mxGeometry x="1720" y="250" width="240" height="80" as="geometry"/>
                </mxCell>
                <mxCell id="446" value="" style="endArrow=ERmany;startArrow=ERone;html=1;exitX=1;exitY=0.5;exitDx=0;exitDy=0;entryX=0;entryY=0.5;entryDx=0;entryDy=0;endFill=0;startFill=0;fontColor=#000000;strokeColor=#000000;" parent="1" source="79" target="397" edge="1">
                    <mxGeometry width="50" height="50" relative="1" as="geometry">
                        <mxPoint x="700" y="160" as="sourcePoint"/>
                        <mxPoint x="750" y="110" as="targetPoint"/>
                        <Array as="points">
                            <mxPoint x="360" y="85"/>
                            <mxPoint x="360" y="115"/>
                        </Array>
                    </mxGeometry>
                </mxCell>
                <mxCell id="447" value="" style="endArrow=ERmany;startArrow=ERone;html=1;exitX=1;exitY=0.5;exitDx=0;exitDy=0;entryX=0;entryY=0.5;entryDx=0;entryDy=0;endFill=0;startFill=0;fontColor=#000000;strokeColor=#000000;" parent="1" source="79" target="434" edge="1">
                    <mxGeometry width="50" height="50" relative="1" as="geometry">
                        <mxPoint x="290" y="95" as="sourcePoint"/>
                        <mxPoint x="450" y="125" as="targetPoint"/>
                        <Array as="points">
                            <mxPoint x="360" y="85"/>
                            <mxPoint x="360" y="435"/>
                        </Array>
                    </mxGeometry>
                </mxCell>
                <mxCell id="716" value="" style="endArrow=ERone;startArrow=ERmany;html=1;exitX=0;exitY=0.5;exitDx=0;exitDy=0;entryX=1;entryY=0.5;entryDx=0;entryDy=0;endFill=0;startFill=0;fontColor=#000000;strokeColor=#000000;" edge="1" parent="1" source="100" target="698">
                    <mxGeometry width="50" height="50" relative="1" as="geometry">
                        <mxPoint x="290" y="95" as="sourcePoint"/>
                        <mxPoint x="450" y="445" as="targetPoint"/>
                        <Array as="points"/>
                    </mxGeometry>
                </mxCell>
                <mxCell id="448" value="" style="endArrow=ERmany;startArrow=ERone;html=1;exitX=0;exitY=0.5;exitDx=0;exitDy=0;endFill=0;startFill=0;entryX=1;entryY=0.5;entryDx=0;entryDy=0;fontColor=#000000;strokeColor=#000000;" parent="1" source="153" target="471" edge="1">
                    <mxGeometry width="50" height="50" relative="1" as="geometry">
                        <mxPoint x="290" y="95" as="sourcePoint"/>
                        <mxPoint x="720" y="120" as="targetPoint"/>
                        <Array as="points">
                            <mxPoint x="760" y="85"/>
                            <mxPoint x="760" y="145"/>
                        </Array>
                    </mxGeometry>
                </mxCell>
                <mxCell id="491" value="" style="endArrow=ERone;startArrow=ERmany;html=1;endFill=0;startFill=0;exitX=1;exitY=0.5;exitDx=0;exitDy=0;fontColor=#000000;strokeColor=#000000;entryX=1;entryY=0.5;entryDx=0;entryDy=0;" parent="1" source="364" target="153" edge="1">
                    <mxGeometry width="50" height="50" relative="1" as="geometry">
                        <mxPoint x="780" y="350" as="sourcePoint"/>
                        <mxPoint x="1090" y="180" as="targetPoint"/>
                        <Array as="points">
                            <mxPoint x="1160" y="495"/>
                            <mxPoint x="1160" y="85"/>
                        </Array>
                    </mxGeometry>
                </mxCell>
                <mxCell id="634" value="" style="endArrow=ERone;startArrow=ERmany;html=1;entryX=1;entryY=0.5;entryDx=0;entryDy=0;endFill=0;startFill=0;exitX=0;exitY=0.5;exitDx=0;exitDy=0;fontColor=#000000;strokeColor=#000000;" parent="1" source="559" target="153" edge="1">
                    <mxGeometry width="50" height="50" relative="1" as="geometry">
                        <mxPoint x="1090" y="475" as="sourcePoint"/>
                        <mxPoint x="1090" y="95" as="targetPoint"/>
                        <Array as="points">
                            <mxPoint x="1160" y="115"/>
                            <mxPoint x="1160" y="85"/>
                        </Array>
                    </mxGeometry>
                </mxCell>
                <mxCell id="685" value="" style="endArrow=ERmany;startArrow=ERone;html=1;entryX=1;entryY=0.5;entryDx=0;entryDy=0;endFill=0;startFill=0;exitX=1;exitY=0.5;exitDx=0;exitDy=0;fontColor=#000000;strokeColor=#000000;" edge="1" parent="1" source="662" target="677">
                    <mxGeometry width="50" height="50" relative="1" as="geometry">
                        <mxPoint x="1250" y="125" as="sourcePoint"/>
                        <mxPoint x="1090" y="95" as="targetPoint"/>
                        <Array as="points">
                            <mxPoint x="1120" y="-165"/>
                            <mxPoint x="1120" y="175"/>
                        </Array>
                    </mxGeometry>
                </mxCell>
                <mxCell id="686" value="" style="endArrow=ERmany;startArrow=ERone;html=1;entryX=1;entryY=0.5;entryDx=0;entryDy=0;endFill=0;startFill=0;exitX=1;exitY=0.5;exitDx=0;exitDy=0;fontColor=#000000;strokeColor=#000000;" edge="1" parent="1" source="640" target="687">
                    <mxGeometry width="50" height="50" relative="1" as="geometry">
                        <mxPoint x="1090" y="790" as="sourcePoint"/>
                        <mxPoint x="1090" y="1160" as="targetPoint"/>
                        <Array as="points">
                            <mxPoint x="1120" y="805"/>
                            <mxPoint x="1120" y="645"/>
                        </Array>
                    </mxGeometry>
                </mxCell>
                <mxCell id="492" value="" style="endArrow=ERmany;startArrow=ERone;html=1;entryX=1;entryY=0.5;entryDx=0;entryDy=0;endFill=0;startFill=0;exitX=0;exitY=0.5;exitDx=0;exitDy=0;fontColor=#000000;strokeColor=#000000;" parent="1" source="190" target="437" edge="1">
                    <mxGeometry width="50" height="50" relative="1" as="geometry">
                        <mxPoint x="630" y="160" as="sourcePoint"/>
                        <mxPoint x="449.9999999999998" y="455" as="targetPoint"/>
                        <Array as="points"/>
                    </mxGeometry>
                </mxCell>
                <mxCell id="638" value="" style="endArrow=ERmany;startArrow=ERone;html=1;entryX=1;entryY=0.5;entryDx=0;entryDy=0;endFill=0;startFill=0;exitX=1;exitY=0.5;exitDx=0;exitDy=0;fontColor=#000000;strokeColor=#000000;" edge="1" parent="1" source="556" target="552">
                    <mxGeometry width="50" height="50" relative="1" as="geometry">
                        <mxPoint x="1250" y="125" as="sourcePoint"/>
                        <mxPoint x="1090" y="95" as="targetPoint"/>
                        <Array as="points">
                            <mxPoint x="1560" y="85"/>
                            <mxPoint x="1560" y="525"/>
                        </Array>
                    </mxGeometry>
                </mxCell>
                <mxCell id="696" value="" style="endArrow=ERmany;startArrow=ERone;html=1;endFill=0;startFill=0;fontColor=#000000;strokeColor=#000000;entryX=1;entryY=0.5;entryDx=0;entryDy=0;exitX=0;exitY=0.5;exitDx=0;exitDy=0;" edge="1" parent="1" source="342" target="328">
                    <mxGeometry width="50" height="50" relative="1" as="geometry">
                        <mxPoint x="2080" y="100" as="sourcePoint"/>
                        <mxPoint x="1980" y="250" as="targetPoint"/>
                        <Array as="points">
                            <mxPoint x="2040" y="85"/>
                            <mxPoint x="2040" y="175"/>
                        </Array>
                    </mxGeometry>
                </mxCell>
                <mxCell id="683" value="" style="endArrow=ERone;startArrow=ERone;html=1;entryX=0;entryY=0.5;entryDx=0;entryDy=0;endFill=0;startFill=0;exitX=1;exitY=0.5;exitDx=0;exitDy=0;fontColor=#000000;strokeColor=#000000;" edge="1" parent="1" source="680" target="247">
                    <mxGeometry width="50" height="50" relative="1" as="geometry">
                        <mxPoint x="1490" y="95" as="sourcePoint"/>
                        <mxPoint x="1090" y="535" as="targetPoint"/>
                        <Array as="points">
                            <mxPoint x="1640" y="205"/>
                            <mxPoint x="1640" y="455"/>
                        </Array>
                    </mxGeometry>
                </mxCell>
                <mxCell id="684" value="" style="endArrow=ERmany;startArrow=ERone;html=1;entryX=0;entryY=0.5;entryDx=0;entryDy=0;endFill=0;startFill=0;exitX=1;exitY=0.5;exitDx=0;exitDy=0;fontColor=#000000;strokeColor=#000000;" edge="1" parent="1" source="247" target="284">
                    <mxGeometry width="50" height="50" relative="1" as="geometry">
                        <mxPoint x="1960" y="545" as="sourcePoint"/>
                        <mxPoint x="1730" y="465" as="targetPoint"/>
                        <Array as="points">
                            <mxPoint x="2020" y="455"/>
                            <mxPoint x="2020" y="545"/>
                        </Array>
                    </mxGeometry>
                </mxCell>
            </root>
        </mxGraphModel>
    </diagram>
</mxfile>
